<svg width="17" height="18" viewBox="0 0 17 18" fill="none"
	xmlns="http://www.w3.org/2000/svg">
	<path d="M16.7456 11.0064C15.6102 15.56 10.9976 18.3312 6.44301 17.1957C1.89024 16.0604 -0.881315 11.4482 0.254618 6.89488C1.38949 2.34079 6.00203 -0.430716 10.5553 0.704554C15.1097 1.83982 17.881 6.45262 16.7456 11.0064Z" fill="black" />
	<path d="M12.2563 7.72964C12.4256 6.59603 11.564 5.98663 10.3857 5.5801L10.7679 4.04448L9.83475 3.81153L9.46266 5.30668C9.21733 5.24545 8.96537 5.18767 8.715 5.13043L9.08976 3.62543L8.15712 3.39248L7.77465 4.92757C7.57159 4.88124 7.37225 4.83545 7.17876 4.78726L7.17982 4.78247L5.89289 4.4606L5.64465 5.45896C5.64465 5.45896 6.33702 5.6179 6.3224 5.62775C6.70035 5.72226 6.76866 5.97279 6.75723 6.1714L6.32187 7.9208C6.34792 7.92745 6.38167 7.93704 6.41888 7.95195C6.38779 7.94423 6.35456 7.93571 6.32028 7.92745L5.71003 10.3781C5.66379 10.4931 5.54658 10.6656 5.28239 10.6001C5.29169 10.6137 4.6041 10.4306 4.6041 10.4306L4.14084 11.5005L5.35521 11.8038C5.58113 11.8605 5.80253 11.9198 6.02047 11.9758L5.63428 13.5289L6.56639 13.7619L6.94886 12.2252C7.20348 12.2944 7.45066 12.3583 7.69252 12.4185L7.31139 13.948L8.24456 14.1809L8.63075 12.6307C10.222 12.9323 11.4186 12.8107 11.9222 11.369C12.3281 10.2082 11.902 9.53868 11.0648 9.10206C11.6745 8.96123 12.1338 8.55948 12.2563 7.72964ZM10.1242 10.7245C9.83582 11.8852 7.88469 11.2577 7.25212 11.1004L7.76455 9.04269C8.39712 9.20083 10.4256 9.51392 10.1242 10.7245ZM10.4128 7.71287C10.1497 8.76874 8.52576 8.23229 7.99897 8.10077L8.46357 6.23449C8.99035 6.36601 10.6869 6.61147 10.4128 7.71287Z" fill="white" />
</svg>