<svg width="202" height="26" viewBox="0 0 202 26" fill="none" xmlns="http://www.w3.org/2000/svg">
<path d="M0.0585938 0.107422L11.5044 0.192673C21.6833 0.277925 23.0576 0.341863 24.1099 0.661557C26.966 1.57801 27.9753 2.96335 28.1471 6.18159C28.2759 8.8457 27.8894 10.2523 26.6653 11.3393C26.1929 11.7656 25.8278 12.1492 25.8708 12.1705C25.8923 12.1918 26.3003 12.4263 26.7298 12.7033C28.0826 13.5132 28.4048 14.4936 28.4048 17.9676C28.4048 20.7383 28.3618 21.0367 27.8679 22.0384C27.2666 23.2106 26.3432 23.9778 24.7541 24.5959C23.8737 24.9369 22.6711 24.9795 11.9339 25.0435L0.0585938 25.1074V0.107422ZM22.2846 20.9514C22.6711 20.7809 23.1006 20.4612 23.2294 20.2268C23.3583 19.971 23.4656 18.7988 23.4656 17.5627C23.4656 15.474 23.4442 15.3248 22.9073 14.8346L22.349 14.3231L4.9977 14.1952V21.2498H13.2653C19.9224 21.2498 21.6833 21.1859 22.2846 20.9514ZM21.7906 10.1671C23.0147 9.82609 23.2509 9.31458 23.2509 7.11936C23.2509 5.41433 23.208 5.2012 22.714 4.73232L22.1987 4.19949H4.9977V10.3802H13.0076C17.8394 10.3802 21.3182 10.295 21.7906 10.1671Z" fill="#4D4D61"/>
<path d="M33.7733 0.149881H38.4977V25.0859H33.7733V0.149881Z" fill="#4D4D61"/>
<path d="M55.4624 4.19933H42.5778V0.149881H73.0714V4.19933H60.4016V25.0859H55.4624V4.19933Z" fill="#4D4D61"/>
<path d="M76.9798 12.6824L77.0442 0.256945L81.4035 0.129068L88.7477 10.1674C92.7849 15.6662 96.1564 20.1845 96.2208 20.1632C96.3067 20.1632 99.6352 15.6662 103.629 10.1461L110.909 0.150381H114.946V25.0864H110.437L110.394 16.6679L110.329 8.24927L104.209 16.6465L98.0891 25.0651H96.0275L93.966 25.0864L87.7599 16.6465L81.5538 8.18533L81.4894 16.6465L81.4464 25.0864H76.9368L76.9798 12.6824Z" fill="#4D4D61"/>
<path d="M118.317 24.4679C118.532 24.1269 122.29 18.5216 126.649 11.9998L134.595 0.171194L136.227 0.149881C137.515 0.149881 137.923 0.235133 138.181 0.533513C138.568 0.95977 154.459 24.8515 154.459 25.0007C154.459 25.0433 153.235 25.0859 151.731 25.0646H148.983L142.734 15.3246C139.298 9.97512 136.399 5.58466 136.313 5.58466C136.248 5.58466 133.306 9.97512 129.806 15.3246L123.428 25.0646L120.679 25.0859H117.909L118.317 24.4679Z" fill="#4D4D61"/>
<path d="M157.68 0.149881H162.62V25.0859H157.68V0.149881Z" fill="#4D4D61"/>
<path d="M168.031 12.6824L168.095 0.256945L172.025 0.129068L181.431 7.09838C186.628 10.9347 192.125 15.0268 193.693 16.1777C195.239 17.3286 196.57 18.2663 196.635 18.2663C196.699 18.2663 196.785 14.2169 196.807 9.27229L196.871 0.256945L201.059 0.129068V25.0864H198.589L185.49 15.5809L172.39 6.09667L172.326 15.5809L172.283 25.0864H167.988L168.031 12.6824Z" fill="#4D4D61"/>
</svg>
