<svg width="132" height="36" viewBox="0 0 132 36" fill="none" xmlns="http://www.w3.org/2000/svg">
<path d="M0.0585938 10.7708V23.9971C0.0585938 23.9971 0.218639 25.1028 1.56253 24.3831C3.01023 23.609 4.81453 22.5852 4.81453 22.5852C4.81453 22.5852 5.31683 22.3494 5.31683 22.0615V12.8843C5.31683 12.8843 5.29331 12.7697 5.07406 12.6258C4.87238 12.4942 1.41898 10.4815 1.41898 10.4815C1.41898 10.4815 0.593609 10.0047 0.0585938 10.7708Z" fill="url(#paint0_linear_415_1161)"/>
<path d="M13.888 0.120548L2.17386 6.85138C2.17386 6.85138 1.27388 7.55247 2.57668 8.33819C3.97978 9.18403 5.77893 10.2078 5.77893 10.2078C5.77893 10.2078 6.23744 10.5175 6.49265 10.3703C7.32045 9.89455 14.6203 5.69934 14.6203 5.69934C14.6203 5.69934 14.7101 5.62198 14.729 5.36025C14.7466 5.12035 14.8185 1.13701 14.8185 1.13701C14.8185 1.13701 14.8228 -0.0282415 13.888 0.120548Z" fill="url(#paint1_linear_415_1161)"/>
<path d="M17.9817 0.120548L29.695 6.85138C29.695 6.85138 30.5969 7.55247 29.293 8.33819C27.8915 9.18403 26.0907 10.2078 26.0907 10.2078C26.0907 10.2078 25.6322 10.5175 25.3789 10.3703C24.5489 9.89455 17.2493 5.69934 17.2493 5.69934C17.2493 5.69934 17.1593 5.62198 17.1398 5.36025C17.1228 5.12035 17.0512 1.13701 17.0512 1.13701C17.0512 1.13701 17.0468 -0.0282415 17.9817 0.120548Z" fill="url(#paint2_linear_415_1161)"/>
<path d="M13.888 34.6971L2.17386 27.9644C2.17386 27.9644 1.27388 27.2646 2.57668 26.4797C3.97978 25.633 5.77893 24.6099 5.77893 24.6099C5.77893 24.6099 6.23744 24.3001 6.49265 24.4476C7.32045 24.9223 14.6203 29.1177 14.6203 29.1177C14.6203 29.1177 14.7101 29.1951 14.729 29.4576C14.7466 29.6975 14.8185 33.6806 14.8185 33.6806C14.8185 33.6806 14.8228 34.8453 13.888 34.6971Z" fill="url(#paint3_linear_415_1161)"/>
<path d="M17.8253 35.1074C17.4963 35.1074 17.2702 34.9797 17.131 34.8608C16.6712 34.4683 16.6601 33.7654 16.6603 33.6866C16.6679 33.2721 16.7331 29.6804 16.7504 29.437C16.7779 29.0674 16.915 28.8979 16.9942 28.8294L17.0545 28.7871C17.0545 28.7871 24.3549 24.5911 25.1844 24.1164C25.6039 23.8725 26.1271 24.1719 26.2979 24.2854C26.4599 24.3773 28.1674 25.3499 29.4964 26.1528C30.063 26.4935 30.3634 26.8882 30.3893 27.3254C30.4226 27.8852 29.9863 28.241 29.9365 28.2798L29.8914 28.3097L18.1153 35.0786L18.044 35.0899C17.9664 35.102 17.8937 35.1074 17.8253 35.1074ZM17.5433 29.4073C17.5387 29.4276 17.5338 29.4561 17.5314 29.4939C17.5192 29.661 17.4722 32.0979 17.4433 33.695C17.4443 33.8233 17.4936 34.1443 17.6412 34.2691C17.676 34.298 17.7344 34.3325 17.8566 34.3265L29.4675 27.6523C29.5056 27.6162 29.617 27.4979 29.6078 27.3682C29.5964 27.2108 29.408 27.0116 29.0914 26.8208C27.7102 25.9865 25.9156 24.9666 25.8975 24.9566L25.8719 24.9404C25.7697 24.8722 25.6188 24.8092 25.5534 24.8048C24.6826 25.304 18.4035 28.9127 17.5433 29.4073Z" fill="url(#paint4_linear_415_1161)"/>
<path d="M31.1248 25.0252C30.8347 25.0252 30.5076 24.9287 30.1467 24.7355C28.7717 24.0015 27.0607 23.0317 26.8985 22.9398C26.7127 22.85 26.1858 22.5532 26.1858 22.0697L26.1937 12.8164C26.214 12.7135 26.2953 12.5105 26.6073 12.3073C26.8106 12.1741 29.9242 10.359 30.2786 10.1525C30.6733 9.92447 31.5717 9.71665 32.157 10.556L32.2273 10.6566L32.2232 24.0608C32.2146 24.1212 32.1234 24.6605 31.6266 24.9107C31.4743 24.9872 31.3067 25.0252 31.1248 25.0252ZM26.969 22.0392C27.0104 22.0972 27.151 22.1953 27.2467 22.24L27.274 22.2543C27.2918 22.2646 29.0877 23.2848 30.5165 24.0473C30.8488 24.2252 31.1237 24.2867 31.2705 24.2153C31.3835 24.1608 31.4303 24.018 31.4441 23.9646V10.9145C31.1532 10.6013 30.7831 10.7663 30.6693 10.8291C29.2894 11.6334 27.1777 12.8676 27.0363 12.9606C27.0063 12.9798 26.9844 12.9965 26.969 13.0102V22.0392Z" fill="url(#paint5_linear_415_1161)"/>
<path d="M65.0667 25.4519V24.0673C63.9864 25.1444 62.9721 25.6067 61.1237 25.6067C59.3054 25.6067 57.979 25.1444 57.0253 24.1937C56.1607 23.3012 55.6973 22.0106 55.6973 20.5961C55.6973 18.0475 57.4548 15.9575 61.1859 15.9575H64.974V15.1593C64.974 13.4065 64.1113 12.6391 61.9861 12.6391C60.4427 12.6391 59.7368 13.0086 58.9042 13.9612L56.3443 11.473C57.9185 9.75089 59.4586 9.25843 62.1413 9.25843C66.639 9.25843 68.9813 11.1655 68.9813 14.9122V25.4519H65.0667ZM64.974 18.6925H61.8009C60.3516 18.6925 59.5511 19.368 59.5511 20.5055C59.5511 21.6128 60.2894 22.3487 61.8615 22.3487C62.9721 22.3487 63.6798 22.2565 64.3876 21.5807C64.8207 21.181 64.974 20.5357 64.974 19.551V18.6925Z" fill="url(#paint6_linear_415_1161)"/>
<path d="M81.0969 25.4501V15.7726C81.0969 13.5898 79.7119 12.854 78.448 12.854C77.1839 12.854 75.7667 13.5898 75.7667 15.7726V25.4501H71.7594V9.44151H75.674V10.917C76.7221 9.80944 78.2001 9.25848 79.6816 9.25848C81.2823 9.25848 82.5765 9.78113 83.471 10.6714C84.7655 11.9618 85.1042 13.4672 85.1042 15.2181V25.4501H81.0969Z" fill="url(#paint7_linear_415_1161)"/>
<path d="M96.1048 25.4519V24.0673C95.0264 25.1444 94.0099 25.6067 92.1596 25.6067C90.3432 25.6067 89.0168 25.1444 88.0614 24.1937C87.1985 23.3012 86.737 22.0106 86.737 20.5961C86.737 18.0475 88.4929 15.9575 92.2223 15.9575H96.0118V15.1593C96.0118 13.4065 95.1513 12.6391 93.0226 12.6391C91.4821 12.6391 90.7746 13.0086 89.942 13.9612L87.384 11.473C88.9566 9.75089 90.4965 9.25843 93.1777 9.25843C97.6769 9.25843 100.019 11.1655 100.019 14.9122V25.4519H96.1048ZM96.0118 18.6925H92.839C91.3897 18.6925 90.5908 19.368 90.5908 20.5055C90.5908 21.6128 91.3272 22.3487 92.8996 22.3487C94.0099 22.3487 94.7195 22.2565 95.427 21.5807C95.8585 21.181 96.0118 20.5357 96.0118 19.551V18.6925Z" fill="url(#paint8_linear_415_1161)"/>
<path d="M111.024 25.4519V24.0673C109.946 25.1444 108.93 25.6067 107.081 25.6067C105.263 25.6067 103.938 25.1444 102.983 24.1937C102.118 23.3012 101.656 22.0106 101.656 20.5961C101.656 18.0475 103.415 15.9575 107.143 15.9575H110.932V15.1593C110.932 13.4065 110.069 12.6391 107.944 12.6391C106.4 12.6391 105.694 13.0086 104.863 13.9612L102.302 11.473C103.876 9.75089 105.418 9.25843 108.099 9.25843C112.6 9.25843 114.939 11.1655 114.939 14.9122V25.4519H111.024ZM110.932 18.6925H107.758C106.309 18.6925 105.509 19.368 105.509 20.5055C105.509 21.6128 106.247 22.3487 107.819 22.3487C108.93 22.3487 109.637 22.2565 110.345 21.5807C110.778 21.181 110.932 20.5357 110.932 19.551V18.6925Z" fill="url(#paint9_linear_415_1161)"/>
<path d="M127.051 25.4501V15.7726C127.051 13.5898 125.666 12.854 124.402 12.854C123.137 12.854 121.721 13.5898 121.721 15.7726V25.4501H117.714V9.44151H121.628V10.917C122.677 9.80944 124.154 9.25848 125.634 9.25848C127.235 9.25848 128.529 9.78113 129.425 10.6714C130.72 11.9618 131.059 13.4672 131.059 15.2181V25.4501H127.051Z" fill="url(#paint10_linear_415_1161)"/>
<path d="M52.5842 21.4869C52.2346 21.5988 51.877 21.6975 51.522 21.7821C51.1659 21.8675 50.8058 21.9328 50.4509 21.9772C49.363 22.115 48.4433 22.0409 47.6536 21.7274C47.1259 21.5182 46.6674 21.2117 46.2913 20.8174C45.9137 20.4206 45.6179 19.9322 45.4127 19.3659C45.2053 18.7953 45.1002 18.1395 45.1002 17.4171C45.1002 16.7249 45.1986 16.0807 45.3908 15.5028C45.583 14.9297 45.8631 14.4362 46.2246 14.037C46.5865 13.6378 47.0378 13.3216 47.5657 13.0973C48.6114 12.6539 49.9759 12.6696 51.446 13.0143C52.1697 13.183 52.8515 13.4259 53.4733 13.7353L53.6961 13.8459V9.86224L53.5858 9.82989C53.0324 9.66628 52.3995 9.52881 51.7045 9.42099C51.0078 9.31317 50.1413 9.25845 49.1292 9.25845C47.881 9.25845 46.7306 9.45684 45.7109 9.84903C44.6879 10.2431 43.8014 10.8102 43.0758 11.5342C42.3478 12.2601 41.7768 13.1461 41.3783 14.1685C40.9798 15.1906 40.7776 16.3448 40.7776 17.6006C40.7776 18.8961 40.9642 20.0551 41.3318 21.0452C41.7006 22.0403 42.241 22.8867 42.9388 23.5616C43.6373 24.2371 44.4968 24.7522 45.4938 25.0943C46.4865 25.4339 47.6222 25.6061 48.8685 25.6061C49.7312 25.6061 50.5706 25.5336 51.3633 25.3902C52.1592 25.2455 52.9378 25.021 53.6758 24.7239L53.7721 24.6851V21.033L53.5572 21.126C53.2579 21.2554 52.9305 21.377 52.5842 21.4869Z" fill="url(#paint11_linear_415_1161)"/>
<defs>
<linearGradient id="paint0_linear_415_1161" x1="0.0585938" y1="17.6074" x2="131.059" y2="17.6074" gradientUnits="userSpaceOnUse">
<stop stop-color="#4D4D61"/>
<stop offset="1" stop-color="#4D4D61" stop-opacity="0"/>
</linearGradient>
<linearGradient id="paint1_linear_415_1161" x1="0.0585938" y1="17.6074" x2="131.059" y2="17.6074" gradientUnits="userSpaceOnUse">
<stop stop-color="#4D4D61"/>
<stop offset="1" stop-color="#4D4D61" stop-opacity="0"/>
</linearGradient>
<linearGradient id="paint2_linear_415_1161" x1="0.0585938" y1="17.6074" x2="131.059" y2="17.6074" gradientUnits="userSpaceOnUse">
<stop stop-color="#4D4D61"/>
<stop offset="1" stop-color="#4D4D61" stop-opacity="0"/>
</linearGradient>
<linearGradient id="paint3_linear_415_1161" x1="0.0585938" y1="17.6074" x2="131.059" y2="17.6074" gradientUnits="userSpaceOnUse">
<stop stop-color="#4D4D61"/>
<stop offset="1" stop-color="#4D4D61" stop-opacity="0"/>
</linearGradient>
<linearGradient id="paint4_linear_415_1161" x1="0.0585938" y1="17.6074" x2="131.059" y2="17.6074" gradientUnits="userSpaceOnUse">
<stop stop-color="#4D4D61"/>
<stop offset="1" stop-color="#4D4D61" stop-opacity="0"/>
</linearGradient>
<linearGradient id="paint5_linear_415_1161" x1="0.0585938" y1="17.6074" x2="131.059" y2="17.6074" gradientUnits="userSpaceOnUse">
<stop stop-color="#4D4D61"/>
<stop offset="1" stop-color="#4D4D61" stop-opacity="0"/>
</linearGradient>
<linearGradient id="paint6_linear_415_1161" x1="0.0585938" y1="17.6074" x2="131.059" y2="17.6074" gradientUnits="userSpaceOnUse">
<stop stop-color="#4D4D61"/>
<stop offset="1" stop-color="#4D4D61" stop-opacity="0"/>
</linearGradient>
<linearGradient id="paint7_linear_415_1161" x1="0.0585938" y1="17.6074" x2="131.059" y2="17.6074" gradientUnits="userSpaceOnUse">
<stop stop-color="#4D4D61"/>
<stop offset="1" stop-color="#4D4D61" stop-opacity="0"/>
</linearGradient>
<linearGradient id="paint8_linear_415_1161" x1="0.0585938" y1="17.6074" x2="131.059" y2="17.6074" gradientUnits="userSpaceOnUse">
<stop stop-color="#4D4D61"/>
<stop offset="1" stop-color="#4D4D61" stop-opacity="0"/>
</linearGradient>
<linearGradient id="paint9_linear_415_1161" x1="0.0585938" y1="17.6074" x2="131.059" y2="17.6074" gradientUnits="userSpaceOnUse">
<stop stop-color="#4D4D61"/>
<stop offset="1" stop-color="#4D4D61" stop-opacity="0"/>
</linearGradient>
<linearGradient id="paint10_linear_415_1161" x1="0.0585938" y1="17.6074" x2="131.059" y2="17.6074" gradientUnits="userSpaceOnUse">
<stop stop-color="#4D4D61"/>
<stop offset="1" stop-color="#4D4D61" stop-opacity="0"/>
</linearGradient>
<linearGradient id="paint11_linear_415_1161" x1="0.0585938" y1="17.6074" x2="131.059" y2="17.6074" gradientUnits="userSpaceOnUse">
<stop stop-color="#4D4D61"/>
<stop offset="1" stop-color="#4D4D61" stop-opacity="0"/>
</linearGradient>
</defs>
</svg>
