<svg width="310" height="36" viewBox="0 0 310 36" fill="none" xmlns="http://www.w3.org/2000/svg">
<path d="M158.427 5.8082C159.787 5.67231 160.784 4.50335 160.653 3.19694C160.523 1.89053 159.315 0.941389 157.955 1.07709C156.595 1.21299 155.598 2.38194 155.729 3.68835C155.859 4.99476 157.067 5.94391 158.427 5.8082Z" fill="url(#paint0_linear_415_1159)"/>
<path d="M40.0845 11.9566C42.3196 9.68641 45.2692 8.96409 48.3882 9.38853C53.0648 10.0252 54.9651 13.4051 55.0176 17.8169C55.063 21.5668 55.0689 25.316 55.0352 29.0645C55.0352 29.1282 55.0034 29.1599 54.9398 29.1599H51.4567C51.3891 29.1599 51.3554 29.1262 51.3554 29.0587C51.3437 25.5516 51.3412 22.049 51.3476 18.5509C51.3535 15.1691 50.0023 12.5776 46.2855 12.5874C42.2982 12.5971 40.0922 14.8634 40.0533 18.804C40.0196 22.2243 40.0033 25.6443 40.0046 29.0645C40.0046 29.1307 39.9715 29.1638 39.9053 29.1638L36.4261 29.1521C36.3482 29.1508 36.3093 29.1112 36.3093 29.0334V1.74086C36.3093 1.66551 36.3469 1.62736 36.4222 1.626L39.882 1.60263C39.9663 1.60263 40.0085 1.64409 40.0085 1.72723V11.9254C40.0085 11.998 40.0338 12.0086 40.0845 11.9566Z" fill="url(#paint1_linear_415_1159)"/>
<path d="M83.9592 12.5132H80.846C80.7812 12.5132 80.7487 12.4807 80.7487 12.4159V9.59862C80.7487 9.49485 80.7999 9.44344 80.9025 9.44481L83.9631 9.4526C84.0307 9.4526 84.0644 9.41814 84.0644 9.34941L84.0546 5.26274C84.0546 5.19654 84.0877 5.16344 84.1539 5.16344H87.6623C87.6886 5.16344 87.7139 5.17395 87.7326 5.19245C87.7511 5.21114 87.7616 5.23646 87.7616 5.26274L87.7519 9.37082C87.7519 9.42144 87.7772 9.44676 87.8278 9.44676H93.2579C93.3227 9.44676 93.3553 9.47927 93.3553 9.5441V12.3672C93.3553 12.4645 93.3066 12.5132 93.2092 12.5132H87.8064C87.7905 12.5132 87.7751 12.5196 87.7638 12.5309C87.7525 12.5422 87.7461 12.5576 87.7461 12.5736C87.7564 16.1145 87.7758 19.6469 87.8045 23.1709C87.8337 26.582 91.2155 26.9188 93.4487 25.3515C93.4618 25.3423 93.4766 25.3363 93.4921 25.3336C93.5079 25.3308 93.5239 25.3318 93.5392 25.3361C93.5544 25.3404 93.5686 25.348 93.5805 25.3583C93.5926 25.3688 93.6019 25.3817 93.6084 25.3963L94.648 27.865C94.6767 27.9298 94.6617 27.9838 94.6033 28.0266C93.1314 29.1325 91.4239 29.4518 89.5061 29.2707C86.7272 29.0098 85.0119 27.7254 84.3603 25.4177C84.1681 24.7388 84.0702 23.4499 84.0663 21.551C84.0599 18.5735 84.0572 15.5939 84.0585 12.6125C84.0585 12.5463 84.0254 12.5132 83.9592 12.5132Z" fill="url(#paint2_linear_415_1159)"/>
<path d="M120.856 12.077C120.856 12.0854 120.859 12.0935 120.864 12.1002C120.869 12.107 120.876 12.1122 120.884 12.1152C120.892 12.1181 120.9 12.1185 120.909 12.1165C120.917 12.1146 120.924 12.1103 120.93 12.1043C124.222 8.25317 131.438 8.12077 134.276 12.7C134.318 12.7662 134.362 12.7682 134.409 12.7059C136.48 9.98985 139.794 8.95991 143.104 9.31231C147.913 9.8263 149.934 13.3873 149.953 17.8789C149.969 21.608 149.97 25.3372 149.957 29.0662C149.957 29.0909 149.948 29.1147 149.93 29.1322C149.913 29.1497 149.89 29.1596 149.866 29.1596H146.365C146.339 29.1596 146.315 29.1493 146.296 29.1312C146.278 29.1129 146.268 29.0882 146.268 29.0623C146.259 25.4228 146.258 21.789 146.266 18.1612C146.272 16.078 145.631 14.0901 143.795 13.1439C142.203 12.3223 139.675 12.4177 138.124 13.399C136.436 14.4645 135.575 16.0326 135.54 18.1028C135.475 21.7553 135.465 25.4065 135.509 29.0564C135.509 29.0849 135.498 29.1121 135.478 29.1322C135.458 29.1522 135.432 29.1635 135.404 29.1635L132.008 29.1518C131.842 29.1518 131.759 29.0687 131.759 28.9026C131.759 25.2735 131.759 21.5951 131.759 17.8673C131.759 15.1298 130.488 12.9648 127.587 12.6864C123.068 12.2542 121.012 15.0578 121.006 19.199C121.002 22.4868 121.001 25.7744 121.002 29.0623C121.002 29.131 120.968 29.1655 120.899 29.1655L117.418 29.146C117.341 29.146 117.303 29.1077 117.303 29.0311V9.57904C117.303 9.50369 117.34 9.46611 117.414 9.46611L120.73 9.43886C120.814 9.4375 120.856 9.47916 120.856 9.56346V12.077Z" fill="url(#paint3_linear_415_1159)"/>
<path d="M170.148 12.0772C170.144 12.2238 170.189 12.2407 170.284 12.1278C173.53 8.24554 180.932 8.21634 183.893 12.3673C184.874 13.7438 185.336 15.6615 185.34 17.3437C185.35 21.2479 185.353 25.1524 185.35 29.0566C185.35 29.1253 185.315 29.1598 185.246 29.1598H181.752C181.726 29.1598 181.701 29.1495 181.683 29.1314C181.665 29.1131 181.654 29.0883 181.654 29.0624C181.645 25.4397 181.646 21.8223 181.658 18.2101C181.666 15.3422 180.447 12.9513 177.328 12.6398C173.053 12.2115 170.401 14.616 170.352 18.8954C170.315 22.2792 170.303 25.6636 170.317 29.0488C170.317 29.1228 170.28 29.1598 170.206 29.1598H166.742C166.676 29.1598 166.643 29.1267 166.643 29.0605L166.645 9.55195C166.645 9.48186 166.68 9.44681 166.748 9.44681H170.072C170.172 9.44681 170.22 9.49744 170.218 9.59868L170.148 12.0772Z" fill="url(#paint4_linear_415_1159)"/>
<path d="M193.799 20.6454C194.88 26.5914 202.551 27.8433 206.345 23.8053C206.357 23.7934 206.371 23.7841 206.384 23.7779C206.4 23.7716 206.415 23.7685 206.431 23.7689C206.448 23.7693 206.464 23.773 206.478 23.78C206.493 23.787 206.507 23.797 206.517 23.8092L208.438 26.0696C208.475 26.1138 208.475 26.1573 208.434 26.2001C204.651 30.2712 197.424 30.3724 193.318 26.8367C189.96 23.9455 189.261 18.7315 191.064 14.7695C192.853 10.8366 197.064 8.73 201.47 9.35887C207.14 10.1669 210.062 14.9077 209.657 20.4312C209.651 20.5052 209.612 20.5422 209.536 20.5422L193.867 20.5617C193.811 20.5617 193.789 20.5895 193.799 20.6454ZM206.116 17.7756C205.298 10.6575 194.909 10.566 193.82 17.7581C193.811 17.8307 193.842 17.8671 193.914 17.8671H206.034C206.096 17.8671 206.123 17.8365 206.116 17.7756Z" fill="url(#paint5_linear_415_1159)"/>
<path d="M218.14 12.3987C219.703 10.0565 222.304 9.25048 225.034 9.27385C225.089 9.27385 225.116 9.30111 225.116 9.35563V12.755C225.116 12.8212 225.083 12.8524 225.017 12.8485C222.042 12.6791 219.569 13.6915 218.609 16.4893C218.362 17.2149 218.22 18.4999 218.187 20.3443C218.132 23.2361 218.134 26.132 218.194 29.0316C218.196 29.1173 218.154 29.1601 218.07 29.1601H214.626C214.546 29.1601 214.505 29.1192 214.505 29.0375V9.54448C214.505 9.47964 214.538 9.44713 214.602 9.44713H217.918C217.941 9.44713 217.965 9.45648 217.982 9.47342C217.998 9.49016 218.007 9.51294 218.007 9.53669L218.023 12.3637C218.025 12.5013 218.064 12.513 218.14 12.3987Z" fill="url(#paint6_linear_415_1159)"/>
<path d="M73.5124 26.8915C72.4299 28.1195 71.0935 28.8722 69.5036 29.15C65.4403 29.8607 59.9576 28.6419 59.9771 23.5175C59.9888 19.9876 62.5724 18.2451 65.8082 17.8674C67.3113 17.6908 69.795 17.6565 73.2593 17.7642C73.3177 17.7667 73.3494 17.7383 73.3547 17.6785C73.5986 14.5698 72.2313 12.8545 69.2524 12.5327C66.6785 12.2549 64.3027 12.9201 62.1246 14.5283C62.0584 14.5764 62.0058 14.5647 61.9669 14.4933L60.5612 11.9233C60.5448 11.8947 60.5396 11.8612 60.546 11.8287C60.5524 11.7964 60.5701 11.767 60.5962 11.7461C63.1292 9.70961 66.7331 9.08658 69.9553 9.34553C75.1342 9.76218 77.0792 12.8734 77.0928 17.7545C77.1032 21.5238 77.1039 25.2931 77.0948 29.0624C77.0948 29.1272 77.0623 29.1598 76.9974 29.1598H73.8161C73.7593 29.1598 73.7047 29.137 73.6646 29.0965C73.6245 29.056 73.6019 29.0009 73.6019 28.9436L73.6078 26.9285C73.6078 26.8312 73.5758 26.8189 73.5124 26.8915ZM63.7951 22.3279C63.1954 24.0957 64.1085 25.7273 65.9075 26.216C67.3119 26.5962 68.704 26.5678 70.0838 26.1303C71.5498 25.6669 73.4384 24.2398 73.4033 22.5381C73.3903 21.8879 73.3956 21.2284 73.4189 20.56C73.4214 20.4899 73.3878 20.4543 73.3177 20.453C71.8146 20.436 69.8749 20.4426 67.4982 20.4724C66.1918 20.488 64.2682 20.9299 63.7951 22.3279Z" fill="url(#paint7_linear_415_1159)"/>
<path d="M109.303 23.2371C108.796 19.8571 98.7071 22.1565 97.2742 16.9854C96.5421 14.3453 97.2171 12.2887 99.299 10.8155C102.554 8.51414 108.931 8.93468 112.33 11.0179C112.391 11.0555 112.405 11.1055 112.373 11.1679L110.944 13.8605C110.935 13.8774 110.922 13.8926 110.907 13.9047C110.892 13.9168 110.875 13.9257 110.856 13.931C110.837 13.9362 110.818 13.9378 110.798 13.9353C110.779 13.9329 110.76 13.9267 110.743 13.917C108.625 12.6968 106.35 12.2342 103.919 12.5288C102.332 12.7215 100.226 13.5256 100.701 15.5329C100.968 16.668 102.179 17.147 103.236 17.3864C104.705 17.72 106.181 18.0303 107.663 18.3171C111.016 18.9693 113.666 20.671 112.91 24.5454C111.985 29.2843 105.738 29.6484 101.986 29.1714C100.018 28.9208 98.1795 28.2544 96.4701 27.1719C96.4265 27.144 96.3949 27.1008 96.3815 27.051C96.3683 27.0013 96.3741 26.9485 96.3981 26.9032L97.8213 24.1852C97.8408 24.1477 97.8686 24.1399 97.905 24.1619C100.566 25.8051 103.458 26.4281 106.583 26.0309C108.041 25.846 109.561 24.9776 109.303 23.2371Z" fill="url(#paint8_linear_415_1159)"/>
<path d="M16.4363 14.5109L10.8096 29.0742C10.7998 29.0995 10.7828 29.1211 10.7609 29.1363C10.739 29.1517 10.7132 29.1599 10.6869 29.1599H7.39458C7.3631 29.1599 7.3324 29.1505 7.30664 29.1326C7.28088 29.1149 7.26127 29.0898 7.25051 29.0606L0.0117035 9.56565C-0.0181492 9.48641 0.00910823 9.44689 0.0934759 9.44689H3.36243C3.44159 9.44689 3.49546 9.48447 3.52402 9.55982L9.05729 24.7364C9.09362 24.8337 9.12997 24.8337 9.16632 24.7364L14.9215 9.56177C14.9501 9.48525 15.0053 9.44689 15.087 9.44689H17.9568C18.023 9.44689 18.0672 9.47804 18.0892 9.54034L23.7491 24.7928C23.7855 24.8902 23.8217 24.8902 23.8581 24.7928L29.5471 9.54229C29.5719 9.47473 29.6197 9.44163 29.6912 9.44299L32.8862 9.45663C32.9498 9.45663 32.9666 9.48525 32.9368 9.54229C32.7902 9.82519 32.6403 10.1725 32.487 10.5839C31.4916 13.2655 29.1864 19.4295 25.5714 29.0762C25.5506 29.132 25.5111 29.1599 25.4527 29.1599H22.1837C22.1465 29.1599 22.1101 29.1484 22.0796 29.1272C22.0488 29.1059 22.0254 29.076 22.0124 29.0411L16.483 14.5109C16.4811 14.5063 16.4778 14.5024 16.4737 14.4996C16.4695 14.4969 16.4646 14.4954 16.4596 14.4954C16.4546 14.4954 16.4497 14.4969 16.4456 14.4996C16.4414 14.5024 16.4382 14.5063 16.4363 14.5109Z" fill="url(#paint9_linear_415_1159)"/>
<path d="M159.945 9.44676H156.433C156.381 9.44676 156.339 9.48861 156.339 9.54021V29.0643C156.339 29.1159 156.381 29.1578 156.433 29.1578H159.945C159.997 29.1578 160.039 29.1159 160.039 29.0643V9.54021C160.039 9.48861 159.997 9.44676 159.945 9.44676Z" fill="url(#paint10_linear_415_1159)"/>
<path d="M288.811 3.65279C289.842 4.10907 290.936 4.5222 291.943 5.02593C292.281 5.19528 292.381 4.94827 292.563 4.72606C293.294 3.83005 294.032 2.92865 294.774 2.02185C294.798 1.99165 294.826 1.98877 294.855 2.01322C295.815 2.8064 296.042 3.74268 295.536 4.82207C295.332 5.25785 294.9 5.7001 294.582 6.12725C294.556 6.16176 294.563 6.1873 294.602 6.20384C295.882 6.75252 297.157 7.31666 298.426 7.89626C298.63 7.98903 298.815 8.11307 298.98 8.2684C302.334 11.4138 305.685 14.5678 309.033 17.7304C309.063 17.7599 309.065 17.7909 309.039 17.8232L306.869 20.5005C306.845 20.5314 306.813 20.544 306.774 20.5382L303.976 20.1186C303.928 20.1114 303.884 20.0887 303.85 20.0541C303.816 20.0195 303.794 19.9747 303.787 19.9266L303.557 18.2309C303.547 18.1583 303.505 18.1166 303.433 18.1058C299.398 17.5334 295.489 16.975 291.705 16.4307C291.332 16.3767 291.252 16.6 291.052 16.8459C286.11 22.9318 281.172 29.0208 276.239 35.1131C276.221 35.1345 276.198 35.1496 276.171 35.156C276.144 35.1624 276.116 35.1599 276.091 35.1487L263.655 29.6842C263.099 29.4372 262.47 29.1934 261.987 28.9043C259.881 27.6437 258.803 25.7262 258.751 23.1518C258.751 23.1359 258.754 23.1201 258.762 23.1059C258.769 23.0917 258.78 23.0796 258.793 23.0707C258.806 23.0617 258.821 23.0563 258.837 23.0548C258.853 23.0534 258.869 23.0559 258.884 23.0623L265.028 25.7579L272.532 29.0661C272.55 29.0738 272.57 29.0755 272.589 29.0708C272.608 29.0662 272.624 29.0554 272.637 29.0402L273.715 27.7221C273.724 27.7117 273.73 27.6994 273.733 27.6862C273.736 27.673 273.736 27.6593 273.733 27.6461C273.73 27.6329 273.724 27.6206 273.715 27.6102C273.706 27.5998 273.696 27.5916 273.683 27.5862L265.522 23.991C262.032 22.4557 258.54 20.9193 255.046 19.3819C252.616 18.3129 251.019 15.9194 251.152 13.2184C251.154 13.1781 251.174 13.1659 251.21 13.1817L272.514 22.5413L276.459 24.265C276.476 24.2722 276.495 24.2738 276.513 24.2696C276.531 24.2653 276.547 24.2554 276.559 24.2413L277.602 22.9846C277.681 22.889 277.664 22.8163 277.551 22.7667L273.188 20.8521C264.441 17.002 255.694 13.1544 246.946 9.30931C246.588 9.15182 246.191 8.88971 245.756 8.52296C244.12 7.14119 243.317 5.17694 243.443 3.00559C243.444 2.9971 243.447 2.9889 243.451 2.98178C243.456 2.97466 243.462 2.96887 243.47 2.96497C243.477 2.96107 243.485 2.95918 243.494 2.95949C243.502 2.95981 243.51 2.96231 243.517 2.96676C244.743 3.7283 246.024 4.40139 247.359 4.98602C252.046 7.03836 256.733 9.09358 261.418 11.1517L280.39 19.4876C280.429 19.5048 280.462 19.4966 280.489 19.4628L281.563 18.1134C281.6 18.0666 281.592 18.0314 281.538 18.0077C278.336 16.5968 275.127 15.1859 271.911 13.775C269.101 12.5421 267.439 10.3373 267.611 7.10776C267.614 7.04447 267.642 7.02973 267.695 7.06353C268.739 7.73086 269.841 8.32125 271.001 8.8347C275.408 10.7856 279.818 12.7294 284.231 14.666C284.271 14.6833 284.315 14.6872 284.357 14.6771C284.399 14.6669 284.436 14.6434 284.463 14.6099L285.456 13.3834C285.519 13.3058 285.505 13.2468 285.414 13.2065C283.324 12.2746 281.225 11.348 279.119 10.4268C278.197 10.0241 277.561 9.70266 277.211 9.46248C275.322 8.16485 274.292 5.91152 274.474 3.62906C274.475 3.61921 274.478 3.60975 274.484 3.60159C274.49 3.59342 274.497 3.58681 274.506 3.58239C274.515 3.57796 274.524 3.57587 274.534 3.5763C274.544 3.57672 274.553 3.57966 274.562 3.58484C275.633 4.2608 276.744 4.85227 277.894 5.35924C281.282 6.85283 284.691 8.35433 288.12 9.86374C288.233 9.91336 288.329 9.88999 288.407 9.79363L289.421 8.53699C289.427 8.52976 289.431 8.52125 289.433 8.51212C289.435 8.503 289.435 8.49351 289.433 8.48441C289.431 8.47531 289.427 8.46684 289.421 8.45968C289.415 8.45252 289.407 8.44686 289.399 8.44314C288.163 7.8959 286.926 7.34973 285.687 6.80465C284.943 6.47673 284.384 6.17867 284.011 5.91044C282.127 4.5542 281.224 2.61907 281.304 0.105064C281.306 0.0561648 281.327 0.044301 281.369 0.0694698C283.782 1.52567 285.809 2.34761 288.811 3.65279ZM294.959 10.745C294.948 10.759 294.94 10.7755 294.936 10.7932C294.931 10.8108 294.932 10.8292 294.936 10.8469C294.94 10.8645 294.948 10.881 294.959 10.8949C294.971 10.9089 294.985 10.92 295.002 10.9273L297.142 11.8798C297.165 11.89 297.191 11.8923 297.216 11.8863C297.241 11.8802 297.263 11.8662 297.279 11.8463L298.297 10.5746C298.309 10.5605 298.316 10.5441 298.32 10.5265C298.324 10.5089 298.324 10.4906 298.32 10.4731C298.316 10.4556 298.307 10.4393 298.296 10.4254C298.284 10.4116 298.27 10.4006 298.254 10.3934L296.131 9.45385C296.108 9.44374 296.082 9.44143 296.057 9.44727C296.033 9.4531 296.011 9.46676 295.995 9.48621L294.959 10.745Z" fill="url(#paint11_linear_415_1159)"/>
<defs>
<linearGradient id="paint0_linear_415_1159" x1="0" y1="17.608" x2="309.057" y2="17.608" gradientUnits="userSpaceOnUse">
<stop stop-color="#4D4D61" stop-opacity="0"/>
<stop offset="1" stop-color="#4D4D61"/>
</linearGradient>
<linearGradient id="paint1_linear_415_1159" x1="0" y1="17.608" x2="309.057" y2="17.608" gradientUnits="userSpaceOnUse">
<stop stop-color="#4D4D61" stop-opacity="0"/>
<stop offset="1" stop-color="#4D4D61"/>
</linearGradient>
<linearGradient id="paint2_linear_415_1159" x1="0" y1="17.608" x2="309.057" y2="17.608" gradientUnits="userSpaceOnUse">
<stop stop-color="#4D4D61" stop-opacity="0"/>
<stop offset="1" stop-color="#4D4D61"/>
</linearGradient>
<linearGradient id="paint3_linear_415_1159" x1="0" y1="17.608" x2="309.057" y2="17.608" gradientUnits="userSpaceOnUse">
<stop stop-color="#4D4D61" stop-opacity="0"/>
<stop offset="1" stop-color="#4D4D61"/>
</linearGradient>
<linearGradient id="paint4_linear_415_1159" x1="0" y1="17.608" x2="309.057" y2="17.608" gradientUnits="userSpaceOnUse">
<stop stop-color="#4D4D61" stop-opacity="0"/>
<stop offset="1" stop-color="#4D4D61"/>
</linearGradient>
<linearGradient id="paint5_linear_415_1159" x1="0" y1="17.608" x2="309.057" y2="17.608" gradientUnits="userSpaceOnUse">
<stop stop-color="#4D4D61" stop-opacity="0"/>
<stop offset="1" stop-color="#4D4D61"/>
</linearGradient>
<linearGradient id="paint6_linear_415_1159" x1="0" y1="17.608" x2="309.057" y2="17.608" gradientUnits="userSpaceOnUse">
<stop stop-color="#4D4D61" stop-opacity="0"/>
<stop offset="1" stop-color="#4D4D61"/>
</linearGradient>
<linearGradient id="paint7_linear_415_1159" x1="0" y1="17.608" x2="309.057" y2="17.608" gradientUnits="userSpaceOnUse">
<stop stop-color="#4D4D61" stop-opacity="0"/>
<stop offset="1" stop-color="#4D4D61"/>
</linearGradient>
<linearGradient id="paint8_linear_415_1159" x1="0" y1="17.608" x2="309.057" y2="17.608" gradientUnits="userSpaceOnUse">
<stop stop-color="#4D4D61" stop-opacity="0"/>
<stop offset="1" stop-color="#4D4D61"/>
</linearGradient>
<linearGradient id="paint9_linear_415_1159" x1="0" y1="17.608" x2="309.057" y2="17.608" gradientUnits="userSpaceOnUse">
<stop stop-color="#4D4D61" stop-opacity="0"/>
<stop offset="1" stop-color="#4D4D61"/>
</linearGradient>
<linearGradient id="paint10_linear_415_1159" x1="0" y1="17.608" x2="309.057" y2="17.608" gradientUnits="userSpaceOnUse">
<stop stop-color="#4D4D61" stop-opacity="0"/>
<stop offset="1" stop-color="#4D4D61"/>
</linearGradient>
<linearGradient id="paint11_linear_415_1159" x1="0" y1="17.608" x2="309.057" y2="17.608" gradientUnits="userSpaceOnUse">
<stop stop-color="#4D4D61" stop-opacity="0"/>
<stop offset="1" stop-color="#4D4D61"/>
</linearGradient>
</defs>
</svg>
