<svg width="26" height="25" viewBox="0 0 26 25" fill="none"
	xmlns="http://www.w3.org/2000/svg">
	<rect x="1.1603" y="0.659321" width="23.6812" height="23.6812" rx="6.85507" fill="#0070FF"/>
	<rect x="1.1603" y="0.659321" width="23.6812" height="23.6812" rx="6.85507" stroke="#0070FF" stroke-width="1.24638"/>
	<g clip-path="url(#clip0_361_4610)">
		<path d="M19.0699 10.7034C20.1428 10.7034 22.0094 11.5653 22.0094 12.6055C22.0094 13.6754 20.1428 14.5076 19.0699 14.5076H15.412L12.2591 19.7354C12.0803 20.0326 11.7478 20.2139 11.387 20.2139H9.62395C9.29141 20.2139 9.04985 19.9107 9.14083 19.6076L10.678 14.5076H7.45305L6.09781 16.2194C6.00369 16.3383 5.85311 16.4097 5.69625 16.4097H4.37865C4.13396 16.4097 3.93945 16.2224 3.93945 15.9936C3.93945 15.9549 3.94573 15.9163 3.95514 15.8777L4.94334 12.6055L3.95514 9.33326C3.94259 9.29462 3.93945 9.25599 3.93945 9.21735C3.93945 8.98553 4.13709 8.80127 4.37865 8.80127H5.69625C5.85311 8.80127 6.00369 8.87259 6.09781 8.99148L7.45305 10.7034H10.6812L9.14397 5.60336C9.04985 5.30022 9.29141 4.99707 9.62395 4.99707H11.387C11.7478 4.99707 12.0803 5.18134 12.2591 5.47557L15.412 10.7034H19.0699Z" fill="white"/>
	</g>
	<defs>
		<clipPath id="clip0_361_4610">
			<rect width="19" height="16" fill="white" transform="translate(5.00195 4.99707)"/>
		</clipPath>
	</defs>
</svg>
