<svg width="9" height="9" viewBox="0 0 9 9" fill="none" xmlns="http://www.w3.org/2000/svg">
<path fill-rule="evenodd" clip-rule="evenodd" d="M6.37506 7.99964C6.37506 7.80429 6.29605 7.61694 6.1554 7.47881C6.01475 7.34067 5.82399 7.26307 5.62508 7.26307C5.42617 7.26307 5.23541 7.34067 5.09476 7.47881C4.95411 7.61694 4.8751 7.80429 4.8751 7.99964C4.8751 8.19499 4.95411 8.38234 5.09476 8.52048C5.23541 8.65861 5.42617 8.73621 5.62508 8.73621C5.82399 8.73621 6.01475 8.65861 6.1554 8.52048C6.29605 8.38234 6.37506 8.19499 6.37506 7.99964ZM2.25016 7.99964C2.25016 7.80429 2.17115 7.61694 2.0305 7.47881C1.88985 7.34067 1.69909 7.26307 1.50018 7.26307C1.30127 7.26307 1.11051 7.34067 0.969862 7.47881C0.829213 7.61694 0.750198 7.80429 0.750198 7.99964C0.750198 8.19499 0.829213 8.38234 0.969862 8.52048C1.11051 8.65861 1.30127 8.73621 1.50018 8.73621C1.69909 8.73621 1.88985 8.65861 2.0305 8.52048C2.17115 8.38234 2.25016 8.19499 2.25016 7.99964ZM9 0.633911C9 0.430617 8.832 0.265625 8.62501 0.265625L7.12505 0.265625C6.94634 0.265625 6.79248 0.389369 6.75734 0.561517L6.44235 2.10706L0.375208 2.10706C0.319988 2.10703 0.265444 2.11897 0.21547 2.14204C0.165497 2.16511 0.121327 2.19874 0.0861185 2.24051C0.0509089 2.28229 0.0255287 2.33119 0.0117901 2.38372C-0.00194855 2.43624 -0.00370522 2.4911 0.00664405 2.54437L0.607487 5.63714C0.658819 5.89081 0.799139 6.11876 1.004 6.28128C1.20887 6.44379 1.46529 6.53057 1.7286 6.52649L5.36709 6.5265C5.63033 6.53047 5.88665 6.44365 6.09142 6.28114C6.2962 6.11863 6.43645 5.89074 6.48777 5.63714L7.11433 2.56373C7.11692 2.55359 7.11907 2.54333 7.12076 2.53301L7.43232 1.0022L8.62501 1.0022C8.72446 1.0022 8.81984 0.963396 8.89017 0.894329C8.96049 0.825262 9 0.731587 9 0.633911ZM6.29235 2.84363L5.75236 5.49361C5.73518 5.57836 5.68821 5.65448 5.61966 5.70865C5.55111 5.76282 5.46534 5.79159 5.37737 5.78992L1.71789 5.78992C1.63017 5.79154 1.54466 5.7629 1.47622 5.709C1.40778 5.65509 1.36076 5.57932 1.34333 5.49487L0.828625 2.84363L6.29235 2.84363Z" fill="white"/>
</svg>
