<svg width="26" height="25" viewBox="0 0 26 25" fill="none"
	xmlns="http://www.w3.org/2000/svg">
	<rect x="1.1603" y="0.659321" width="23.6812" height="23.6812" rx="6.85507" fill="#191E20"/>
	<rect x="1.1603" y="0.659321" width="23.6812" height="23.6812" rx="6.85507" stroke="#667085" stroke-width="1.24638"/>
	<path d="M17.2206 7.15018L15.7206 6.35888C14.4036 5.6648 13.7451 5.31738 13.0371 5.31738C12.3291 5.31738 11.6706 5.66405 10.3536 6.35888L10.1129 6.48624L16.8051 10.3289L19.8171 8.81417C19.3326 8.26252 18.5511 7.85029 17.2206 7.14867M20.3481 9.81196L17.3496 11.3192V13.6072C17.3496 13.7571 17.2903 13.9008 17.1849 14.0068C17.0794 14.1128 16.9363 14.1724 16.7871 14.1724C16.6379 14.1724 16.4949 14.1128 16.3894 14.0068C16.2839 13.9008 16.2246 13.7571 16.2246 13.6072V11.8844L13.5996 13.2032V20.3174C14.1381 20.1825 14.7509 19.8599 15.7206 19.3482L17.2206 18.5569C18.8339 17.7061 19.6409 17.2811 20.0894 16.5161C20.5371 15.752 20.5371 14.8002 20.5371 12.8988V12.8106C20.5371 11.384 20.5371 10.4917 20.3481 9.81196ZM12.4746 20.3174V13.2032L5.72611 9.81196C5.53711 10.4917 5.53711 11.384 5.53711 12.8091V12.8973C5.53711 14.8002 5.53711 15.752 5.98486 16.5161C6.43336 17.2811 7.24036 17.7069 8.85361 18.5577L10.3536 19.3482C11.3234 19.8599 11.9361 20.1825 12.4746 20.3174ZM6.25711 8.81492L13.0371 12.2213L15.5954 10.9364L8.93086 7.10948L8.85361 7.15018C7.52386 7.85104 6.74161 8.26327 6.25711 8.81568" fill="#667085"/>
</svg>
