<svg width="802" height="43" viewBox="0 0 802 43" fill="none"
	xmlns="http://www.w3.org/2000/svg">
	<path d="M0.5 16.0001C0.5 20.4184 4.08172 24.0001 8.5 24.0001C12.9183 24.0001 16.5 20.4184 16.5 16.0001C16.5 11.5818 12.9183 8.00008 8.5 8.00008C4.08172 8.00008 0.5 11.5818 0.5 16.0001ZM8.5 16.0001V17.5001C10.5438 17.5001 12.5786 17.5041 14.6044 17.512L14.6103 16.012L14.6162 14.512C12.5864 14.5041 10.5478 14.5001 8.5 14.5001V16.0001ZM26.6722 16.1058L26.6548 17.6057C30.7039 17.6528 34.7181 17.7152 38.6992 17.7921L38.7282 16.2924L38.7572 14.7927C34.7685 14.7156 30.7466 14.6531 26.6897 14.6059L26.6722 16.1058ZM50.7814 16.5713L50.741 18.0708C54.7908 18.1799 58.8071 18.3036 62.792 18.441L62.8436 16.9419L62.8953 15.4428C58.903 15.3052 54.8792 15.1812 50.8218 15.0719L50.7814 16.5713ZM74.8749 17.4009L74.8122 18.8996C78.8633 19.069 82.883 19.2519 86.8737 19.4473L86.947 17.9491L87.0204 16.4509C83.0228 16.2551 78.9959 16.0719 74.9375 15.9022L74.8749 17.4009ZM98.9478 18.5782L98.8642 20.0758C102.916 20.302 106.939 20.5403 110.936 20.7897L111.03 19.2926L111.123 17.7955C107.12 17.5457 103.09 17.307 99.0314 17.0805L98.9478 18.5782ZM123.014 20.0772L122.912 21.5737C126.957 21.8509 130.978 22.1384 134.976 22.4351L135.087 20.9392L135.198 19.4433C131.194 19.1462 127.168 18.8583 123.117 18.5808L123.014 20.0772ZM147.092 21.8616L146.973 23.3569C150.999 23.6764 155.005 24.0041 158.993 24.3388L159.119 22.8441L159.244 21.3494C155.252 21.0143 151.242 20.6861 147.211 20.3663L147.092 21.8616ZM171.138 23.8771L171.006 25.3714C175.017 25.7237 179.012 26.0819 182.995 26.4446L183.131 24.9508L183.267 23.457C179.281 23.094 175.283 22.7355 171.269 22.3829L171.138 23.8771ZM195.157 26.0616L195.017 27.555C199.024 27.9298 203.02 28.3077 207.01 28.6876L207.152 27.1943L207.294 25.7011C203.303 25.3211 199.305 24.943 195.297 24.5681L195.157 26.0616ZM219.163 28.3437L219.019 29.8368C223.026 30.2217 227.018 30.6059 231.021 30.9904L231.164 29.4973L231.307 28.0042C227.313 27.6205 223.306 27.2347 219.306 26.8505L219.163 28.3437ZM243.171 30.6464L243.029 32.1397C247.027 32.5203 251.027 32.8986 255.032 33.2733L255.172 31.7798L255.312 30.2863C251.308 29.9119 247.31 29.5337 243.313 29.1532L243.171 30.6464ZM267.185 32.8891L267.049 34.3829C271.044 34.7466 275.048 35.1052 279.062 35.4574L279.193 33.9631L279.324 32.4688C275.313 32.117 271.313 31.7587 267.321 31.3953L267.185 32.8891ZM291.203 34.993L291.078 36.4878C295.079 36.8226 299.093 37.1497 303.124 37.4678L303.242 35.9724L303.36 34.4771C299.334 34.1594 295.324 33.8327 291.328 33.4983L291.203 34.993ZM315.24 36.8875L315.131 38.3834C319.133 38.6777 323.154 38.962 327.197 39.2349L327.298 37.7383L327.399 36.2417C323.363 35.9692 319.347 35.6854 315.35 35.3915L315.24 36.8875ZM339.306 38.5106L339.215 40.0078C343.21 40.2516 347.229 40.4834 351.273 40.7021L351.354 39.2043L351.435 37.7065C347.398 37.4882 343.386 37.2568 339.398 37.0134L339.306 38.5106ZM363.402 39.8118L363.332 41.3102C367.318 41.4964 371.332 41.6691 375.374 41.8271L375.432 40.3282L375.491 38.8293C371.456 38.6717 367.451 38.4993 363.472 38.3134L363.402 39.8118ZM387.523 40.753L387.476 42.2522C391.452 42.3761 395.458 42.4851 399.496 42.5783L399.53 41.0787L399.565 39.5791C395.536 39.4861 391.538 39.3773 387.569 39.2537L387.523 40.753ZM411.658 41.3084L411.636 42.8083C415.602 42.8669 419.6 42.9098 423.632 42.9361L423.641 41.4362L423.651 39.9362C419.628 39.91 415.639 39.8671 411.68 39.8086L411.658 41.3084ZM435.795 41.4642L435.798 42.9642C439.756 42.9566 443.746 42.9327 447.772 42.8916L447.756 41.3917L447.741 39.8917C443.724 39.9327 439.742 39.9566 435.792 39.9642L435.795 41.4642ZM459.921 41.2163L459.948 42.7161C463.901 42.6425 467.887 42.5522 471.908 42.4445L471.868 40.945L471.828 39.4456C467.814 39.5531 463.837 39.6432 459.893 39.7166L459.921 41.2163ZM484.023 40.5692L484.075 42.0682C488.027 41.9298 492.013 41.7744 496.035 41.6014L495.971 40.1028L495.906 38.6042C491.892 38.7768 487.914 38.9319 483.97 39.0701L484.023 40.5692ZM508.095 39.5327L508.171 41.0308C512.13 40.8289 516.124 40.61 520.154 40.3734L520.066 38.876L519.978 37.3786C515.956 37.6147 511.97 37.8332 508.019 38.0347L508.095 39.5327ZM532.137 38.121L532.236 39.6177C536.212 39.3539 540.223 39.0729 544.27 38.7743L544.16 37.2784L544.049 35.7824C540.009 36.0805 536.006 36.361 532.038 36.6243L532.137 38.121ZM556.155 36.3496L556.276 37.8447C560.281 37.5201 564.321 37.1783 568.397 36.8188L568.265 35.3246L568.133 33.8304C564.064 34.1893 560.031 34.5305 556.034 34.8545L556.155 36.3496ZM580.163 34.2345L580.305 35.7277C584.309 35.3472 588.348 34.9498 592.422 34.5349L592.27 33.0426L592.118 31.5503C588.05 31.9645 584.018 32.3613 580.021 32.7412L580.163 34.2345ZM604.184 31.7906L604.345 33.2819C608.309 32.8526 612.306 32.4069 616.337 31.9446L616.167 30.4544L615.996 28.9641C611.97 29.4258 607.979 29.8707 604.022 30.2994L604.184 31.7906ZM628.245 29.0313L628.425 30.5204C632.343 30.0468 636.292 29.5575 640.275 29.0523L640.086 27.5642L639.897 26.0761C635.92 26.5806 631.977 27.0692 628.065 27.5421L628.245 29.0313ZM652.124 26.0015L652.321 27.4885C656.272 26.9641 660.255 26.4241 664.271 25.8684L664.065 24.3825L663.86 22.8967C659.849 23.4517 655.872 23.9909 651.926 24.5146L652.124 26.0015ZM675.936 22.7071L676.149 24.1919C680.14 23.6177 684.164 23.0281 688.219 22.4228L687.998 20.9392L687.776 19.4556C683.726 20.0602 679.708 20.649 675.722 21.2224L675.936 22.7071ZM699.837 19.1415L700.066 20.6239C703.996 20.0172 707.955 19.396 711.945 18.7599L711.709 17.2786L711.473 15.7973C707.488 16.4326 703.533 17.0531 699.609 17.659L699.837 19.1415ZM723.765 15.3268L724.009 16.807C727.91 16.1658 731.84 15.5107 735.799 14.8413L735.549 13.3623L735.299 11.8833C731.344 12.5519 727.419 13.2063 723.522 13.8467L723.765 15.3268ZM747.395 11.3326L747.651 12.8105C751.631 12.1195 755.64 11.4143 759.68 10.6948L759.416 9.21801L759.153 7.74126C755.119 8.46006 751.114 9.16448 747.138 9.85474L747.395 11.3326ZM771.2 7.09329L771.469 8.56893C775.375 7.85635 779.308 7.1305 783.269 6.39119L782.994 4.91666L782.719 3.44212C778.762 4.18069 774.832 4.9058 770.931 5.61765L771.2 7.09329ZM794.956 2.65929L795.237 4.13271C797.245 3.74952 799.261 3.36291 801.284 2.97287L801 1.5L800.716 0.0271289C798.695 0.4168 796.681 0.803034 794.675 1.18586L794.956 2.65929Z" fill="white" />
</svg>