<svg width="263" height="32" viewBox="0 0 263 32" fill="none"
	xmlns="http://www.w3.org/2000/svg">
	<path d="M3.96484 28.8202V3.39062H8.43704V28.8202H3.96484Z" fill="white"/>
	<path d="M13.168 28.8202V3.39062H32.0888C33.3788 3.39062 34.4969 3.56016 35.5289 3.81445C36.561 4.06875 37.421 4.49258 38.195 5.08593C38.8831 5.67929 39.4851 6.35741 39.9151 7.1203C40.3451 7.88319 40.5171 8.90038 40.5171 10.0023C40.5171 10.85 40.4311 11.5281 40.2591 12.1215C40.0871 12.7148 39.8291 13.2234 39.4851 13.6472C39.1411 14.0711 38.7971 14.4101 38.3671 14.7492C37.937 15.0883 37.507 15.2578 36.991 15.4273C38.195 15.7664 39.1411 16.4445 39.9151 17.4617C40.6891 18.4789 41.0332 19.6656 41.0332 21.1914C41.0332 22.3781 40.8612 23.3953 40.4311 24.3277C40.0011 25.2601 39.4851 26.1078 38.7971 26.7859C38.109 27.464 37.163 27.9726 36.131 28.3117C35.0989 28.6507 33.9809 28.8202 32.6908 28.8202H13.168ZM20.9943 17.716V13.9863H32.1748C33.4648 13.9863 34.4109 13.732 35.0129 13.3082C35.6149 12.7996 35.9589 12.0367 35.9589 10.9347C35.9589 10.2566 35.7869 9.74803 35.5289 9.3242C35.2709 8.90038 34.9269 8.56131 34.4109 8.39178C33.8949 8.13749 33.3788 8.05272 32.6908 7.96796C32.0028 7.88319 31.2287 7.88319 30.4547 7.88319H17.7262V24.4972H30.7987C31.5728 24.4972 32.3468 24.4124 33.0348 24.3277C33.7228 24.2429 34.3249 23.9886 34.8409 23.7343C35.3569 23.48 35.7009 23.141 35.9589 22.7171C36.217 22.2933 36.389 21.7847 36.389 21.1066C36.389 20.0894 36.045 19.2418 35.3569 18.6484C34.6689 18.055 33.7228 17.8007 32.4328 17.8007L20.9943 17.716Z" fill="white"/>
	<path d="M75.7758 28.8222L70.8736 10.9367L63.5633 27.466C63.3053 27.9745 62.9613 28.3984 62.6172 28.7374C62.2732 28.9917 61.7572 29.1613 61.2412 29.1613C60.2091 29.1613 59.4351 28.5679 58.9191 27.466L51.6088 10.9367L46.7066 28.8222H42.2344L48.8567 4.83359C49.2007 3.64687 49.8887 2.96875 51.0928 2.96875C51.5228 2.96875 52.0388 3.13828 52.3828 3.30781C52.8128 3.56211 53.0708 3.90117 53.3289 4.40976L61.2412 22.38L69.3255 4.57929C69.7556 3.56211 70.4436 3.05352 71.4756 3.05352C72.5937 3.05352 73.2817 3.64687 73.6257 4.91835L80.248 28.907C80.248 28.8222 75.7758 28.8222 75.7758 28.8222Z" fill="white"/>
	<path d="M115.428 28.821L110.526 10.9355L103.216 27.4648C102.958 27.9734 102.614 28.3972 102.27 28.7363C101.926 28.9906 101.41 29.1601 100.894 29.1601C99.8615 29.1601 99.0875 28.5667 98.5714 27.4648L91.2611 10.9355L86.3589 28.821H81.8867L88.509 4.83242C88.853 3.6457 89.541 2.96758 90.7451 2.96758C91.2611 2.96758 91.6911 3.13711 92.1212 3.30664C92.5512 3.56094 92.8092 3.9 93.0672 4.40859L100.98 22.3789L108.892 4.40859C109.322 3.3914 110.01 2.88281 111.042 2.88281C112.16 2.88281 112.848 3.47617 113.192 4.74765L119.814 28.7363C119.9 28.821 115.428 28.821 115.428 28.821Z" fill="white"/>
	<path d="M144.591 20.6445C144.591 20.5039 144.477 20.3899 144.337 20.3899H137.572C137.382 20.3899 137.259 20.189 137.345 20.0196L147.084 0.942944C147.206 0.704682 147.565 0.791195 147.565 1.05871V11.3968C147.565 11.5374 147.679 11.6514 147.82 11.6514H154.584C154.775 11.6514 154.898 11.8524 154.811 12.0218L145.073 31.0984C144.951 31.3367 144.591 31.2501 144.591 30.9826V20.6445Z" fill="white"/>
	<path d="M172.43 11.6535H174.15V8.77148H175.096V11.6535H177.332V12.5012H175.096V18.5195C175.096 19.5367 175.354 20.1301 176.214 20.1301C176.472 20.1301 176.902 20.1301 177.16 20.0453V20.8929C176.816 20.9777 176.386 21.0625 175.956 21.0625C174.752 21.0625 174.064 20.4691 174.064 19.0281V12.5859H172.344V11.6535H172.43Z" fill="white"/>
	<path d="M179.481 16.4C179.481 18.7734 180.685 20.2992 182.491 20.2992C184.297 20.2992 184.899 19.282 185.157 18.6039H186.104C185.674 19.7906 184.727 21.2316 182.405 21.2316C179.567 21.2316 178.449 18.7734 178.449 16.4848C178.449 13.857 179.825 11.5684 182.491 11.5684C185.416 11.5684 186.276 14.0266 186.276 15.7219C186.276 15.9762 186.276 16.2305 186.276 16.4848L179.481 16.4ZM185.416 15.5523C185.416 13.6875 184.383 12.2465 182.577 12.2465C180.685 12.2465 179.739 13.6027 179.567 15.5523H185.416Z" fill="white"/>
	<path d="M195.564 18.1816C195.134 19.7922 194.016 21.1484 191.952 21.1484C189.63 21.1484 187.91 19.4531 187.91 16.3168C187.91 13.7738 189.286 11.4004 192.038 11.4004C194.446 11.4004 195.392 13.0957 195.564 14.3672H194.618C194.36 13.2652 193.586 12.248 192.038 12.248C190.06 12.248 188.942 13.9434 188.942 16.232C188.942 18.4359 189.974 20.216 191.952 20.216C193.328 20.216 194.188 19.5379 194.618 18.1816H195.564Z" fill="white"/>
	<path d="M198.747 7.24609V13.1797C199.263 12.2473 200.209 11.3996 201.843 11.3996C203.219 11.3996 205.025 12.0777 205.025 14.9597V20.8086H204.079V15.214C204.079 13.3492 203.219 12.332 201.671 12.332C199.779 12.332 198.747 13.434 198.747 15.7226V20.8933H197.801V7.24609H198.747Z" fill="white"/>
	<path d="M208.035 13.9434C208.035 13.0957 208.035 12.3328 208.035 11.5699H208.981C208.981 11.909 209.067 13.0957 208.981 13.35C209.411 12.4176 210.185 11.4004 212.077 11.4004C213.711 11.4004 215.259 12.3328 215.259 14.8758V20.8941H214.313V15.0453C214.313 13.4348 213.625 12.3328 211.991 12.3328C209.755 12.3328 208.981 14.1976 208.981 16.1473V20.8941H208.035V13.9434Z" fill="white"/>
	<path d="M225.928 16.232C225.928 18.775 224.466 21.0636 221.714 21.0636C219.22 21.0636 217.586 19.0293 217.586 16.232C217.586 13.6043 219.048 11.4004 221.8 11.4004C224.294 11.4004 225.928 13.35 225.928 16.232ZM218.532 16.232C218.532 18.4359 219.736 20.216 221.714 20.216C223.778 20.216 224.896 18.6055 224.896 16.232C224.896 14.0281 223.778 12.248 221.714 12.248C219.564 12.248 218.532 14.0281 218.532 16.232Z" fill="white"/>
	<path d="M228.246 20.8933V7.24609H229.192V20.8933H228.246Z" fill="white"/>
	<path d="M239.858 16.232C239.858 18.775 238.396 21.0636 235.644 21.0636C233.15 21.0636 231.516 19.0293 231.516 16.232C231.516 13.6043 232.978 11.4004 235.73 11.4004C238.224 11.4004 239.858 13.35 239.858 16.232ZM232.548 16.232C232.548 18.4359 233.752 20.216 235.73 20.216C237.794 20.216 238.912 18.6055 238.912 16.232C238.912 14.0281 237.794 12.248 235.73 12.248C233.494 12.248 232.548 14.0281 232.548 16.232Z" fill="white"/>
	<path d="M249.319 20.216C249.319 23.1828 248.029 24.7086 245.276 24.7086C242.868 24.7086 241.836 23.3523 241.578 21.9961H242.524C242.868 23.2675 243.9 23.8609 245.276 23.8609C247.685 23.8609 248.373 22.3351 248.373 19.9617V19.0293C247.857 20.216 246.91 20.8941 245.276 20.8941C243.126 20.8941 241.406 19.114 241.406 16.232C241.406 13.0957 243.212 11.4004 245.448 11.4004C247.341 11.4004 248.201 12.3328 248.459 13.0109C248.459 12.5023 248.459 11.8242 248.545 11.5699H249.405C249.405 11.909 249.405 13.35 249.405 14.2824L249.319 20.216ZM242.438 16.232C242.438 18.4359 243.642 20.0465 245.448 20.0465C247.771 20.0465 248.459 18.5207 248.459 16.1473C248.459 13.6891 247.685 12.3328 245.448 12.3328C243.298 12.248 242.438 14.1129 242.438 16.232Z" fill="white"/>
	<path d="M252.157 11.6543C254.049 16.9098 254.909 19.1137 255.167 20.1308C255.511 19.0289 256.285 16.825 258.091 11.6543H259.037L255.511 21.4023C254.479 24.1148 253.877 24.7929 252.157 24.7929C251.813 24.7929 251.641 24.7929 251.297 24.7082V23.7758C251.555 23.7758 251.813 23.8605 252.157 23.8605C253.533 23.8605 253.963 23.1824 254.651 21.3176L251.039 11.6543H252.157Z" fill="white"/>
</svg>
