<svg xmlns="http://www.w3.org/2000/svg" width="257" height="33" viewBox="0 0 257 33" fill="none">
	<path d="M0.964844 28.8202V3.39062H5.43704V28.8202H0.964844Z" fill="black"/>
	<path d="M10.168 28.8202V3.39062H29.0888C30.3788 3.39062 31.4969 3.56016 32.5289 3.81445C33.561 4.06875 34.421 4.49258 35.195 5.08593C35.8831 5.67929 36.4851 6.35741 36.9151 7.1203C37.3451 7.88319 37.5171 8.90038 37.5171 10.0023C37.5171 10.85 37.4311 11.5281 37.2591 12.1215C37.0871 12.7148 36.8291 13.2234 36.4851 13.6472C36.1411 14.0711 35.7971 14.4101 35.3671 14.7492C34.937 15.0883 34.507 15.2578 33.991 15.4273C35.195 15.7664 36.1411 16.4445 36.9151 17.4617C37.6891 18.4789 38.0332 19.6656 38.0332 21.1914C38.0332 22.3781 37.8612 23.3953 37.4311 24.3277C37.0011 25.2601 36.4851 26.1078 35.7971 26.7859C35.109 27.464 34.163 27.9726 33.131 28.3117C32.0989 28.6507 30.9809 28.8202 29.6908 28.8202H10.168ZM17.9943 17.716V13.9863H29.1748C30.4648 13.9863 31.4109 13.732 32.0129 13.3082C32.6149 12.7996 32.9589 12.0367 32.9589 10.9347C32.9589 10.2566 32.7869 9.74803 32.5289 9.3242C32.2709 8.90038 31.9269 8.56131 31.4109 8.39178C30.8949 8.13749 30.3788 8.05272 29.6908 7.96796C29.0028 7.88319 28.2287 7.88319 27.4547 7.88319H14.7262V24.4972H27.7987C28.5728 24.4972 29.3468 24.4124 30.0348 24.3277C30.7228 24.2429 31.3249 23.9886 31.8409 23.7343C32.3569 23.48 32.7009 23.141 32.9589 22.7171C33.217 22.2933 33.389 21.7847 33.389 21.1066C33.389 20.0894 33.045 19.2418 32.3569 18.6484C31.6689 18.055 30.7228 17.8007 29.4328 17.8007L17.9943 17.716Z" fill="black"/>
	<path d="M72.7758 28.8202L67.8736 10.9347L60.5633 27.464C60.3053 27.9726 59.9613 28.3964 59.6172 28.7355C59.2732 28.9898 58.7572 29.1593 58.2412 29.1593C57.2091 29.1593 56.4351 28.566 55.9191 27.464L48.6088 10.9347L43.7066 28.8202H39.2344L45.8567 4.83164C46.2007 3.64492 46.8887 2.9668 48.0928 2.9668C48.5228 2.9668 49.0388 3.13633 49.3828 3.30586C49.8128 3.56015 50.0708 3.89922 50.3289 4.40781L58.2412 22.3781L66.3255 4.57734C66.7556 3.56015 67.4436 3.05156 68.4756 3.05156C69.5937 3.05156 70.2817 3.64492 70.6257 4.9164L77.248 28.905C77.248 28.8202 72.7758 28.8202 72.7758 28.8202Z" fill="black"/>
	<path d="M112.428 28.8201L107.526 10.9345L100.216 27.4638C99.9576 27.9724 99.6136 28.3962 99.2696 28.7353C98.9256 28.9896 98.4096 29.1591 97.8935 29.1591C96.8615 29.1591 96.0875 28.5658 95.5714 27.4638L88.2611 10.9345L83.3589 28.8201H78.8867L85.509 4.83144C85.853 3.64472 86.541 2.9666 87.7451 2.9666C88.2611 2.9666 88.6911 3.13613 89.1212 3.30566C89.5512 3.55996 89.8092 3.89902 90.0672 4.40761L97.9795 22.3779L105.892 4.40761C106.322 3.39043 107.01 2.88184 108.042 2.88184C109.16 2.88184 109.848 3.47519 110.192 4.74667L116.814 28.7353C116.9 28.8201 112.428 28.8201 112.428 28.8201Z" fill="black"/>
	<path d="M141.591 20.6445C141.591 20.5039 141.477 20.3899 141.337 20.3899H134.572C134.382 20.3899 134.259 20.189 134.345 20.0196L144.084 0.942944C144.206 0.704682 144.565 0.791195 144.565 1.05871V11.3968C144.565 11.5374 144.679 11.6514 144.82 11.6514H151.584C151.775 11.6514 151.898 11.8524 151.811 12.0218L142.073 31.0984C141.951 31.3367 141.591 31.2501 141.591 30.9826V20.6445Z" fill="black"/>
	<path d="M169.43 11.6555H171.15V8.77344H172.096V11.6555H174.332V12.5031H172.096V18.5215C172.096 19.5386 172.354 20.132 173.214 20.132C173.472 20.132 173.902 20.132 174.16 20.0472V20.8949C173.816 20.9797 173.386 21.0644 172.956 21.0644C171.752 21.0644 171.064 20.4711 171.064 19.0301V12.5879H169.344V11.6555H169.43Z" fill="black"/>
	<path d="M176.481 16.4019C176.481 18.7754 177.685 20.3011 179.491 20.3011C181.297 20.3011 181.899 19.284 182.157 18.6058H183.104C182.674 19.7926 181.727 21.2336 179.405 21.2336C176.567 21.2336 175.449 18.7754 175.449 16.4867C175.449 13.859 176.825 11.5703 179.491 11.5703C182.416 11.5703 183.276 14.0285 183.276 15.7238C183.276 15.9781 183.276 16.2324 183.276 16.4867L176.481 16.4019ZM182.416 15.5543C182.416 13.6894 181.383 12.2484 179.577 12.2484C177.685 12.2484 176.739 13.6047 176.567 15.5543H182.416Z" fill="black"/>
	<path d="M192.564 18.1816C192.134 19.7922 191.016 21.1484 188.952 21.1484C186.63 21.1484 184.91 19.4531 184.91 16.3168C184.91 13.7738 186.286 11.4004 189.038 11.4004C191.446 11.4004 192.392 13.0957 192.564 14.3672H191.618C191.36 13.2652 190.586 12.248 189.038 12.248C187.06 12.248 185.942 13.9434 185.942 16.232C185.942 18.4359 186.974 20.216 188.952 20.216C190.328 20.216 191.188 19.5379 191.618 18.1816H192.564Z" fill="black"/>
	<path d="M195.747 7.24707V13.1807C196.263 12.2482 197.209 11.4006 198.843 11.4006C200.219 11.4006 202.025 12.0787 202.025 14.9607V20.8095H201.079V15.215C201.079 13.3502 200.219 12.333 198.671 12.333C196.779 12.333 195.747 13.4349 195.747 15.7236V20.8943H194.801V7.24707H195.747Z" fill="black"/>
	<path d="M205.035 13.9434C205.035 13.0957 205.035 12.3328 205.035 11.5699H205.981C205.981 11.909 206.067 13.0957 205.981 13.35C206.411 12.4176 207.185 11.4004 209.077 11.4004C210.711 11.4004 212.259 12.3328 212.259 14.8758V20.8941H211.313V15.0453C211.313 13.4348 210.625 12.3328 208.991 12.3328C206.755 12.3328 205.981 14.1976 205.981 16.1473V20.8941H205.035V13.9434Z" fill="black"/>
	<path d="M222.928 16.232C222.928 18.775 221.466 21.0636 218.714 21.0636C216.22 21.0636 214.586 19.0293 214.586 16.232C214.586 13.6043 216.048 11.4004 218.8 11.4004C221.294 11.4004 222.928 13.35 222.928 16.232ZM215.532 16.232C215.532 18.4359 216.736 20.216 218.714 20.216C220.778 20.216 221.896 18.6055 221.896 16.232C221.896 14.0281 220.778 12.248 218.714 12.248C216.564 12.248 215.532 14.0281 215.532 16.232Z" fill="black"/>
	<path d="M225.246 20.8943V7.24707H226.192V20.8943H225.246Z" fill="black"/>
	<path d="M236.858 16.232C236.858 18.775 235.396 21.0636 232.644 21.0636C230.15 21.0636 228.516 19.0293 228.516 16.232C228.516 13.6043 229.978 11.4004 232.73 11.4004C235.224 11.4004 236.858 13.35 236.858 16.232ZM229.548 16.232C229.548 18.4359 230.752 20.216 232.73 20.216C234.794 20.216 235.912 18.6055 235.912 16.232C235.912 14.0281 234.794 12.248 232.73 12.248C230.494 12.248 229.548 14.0281 229.548 16.232Z" fill="black"/>
	<path d="M246.319 20.216C246.319 23.1828 245.029 24.7086 242.276 24.7086C239.868 24.7086 238.836 23.3523 238.578 21.9961H239.524C239.868 23.2675 240.9 23.8609 242.276 23.8609C244.685 23.8609 245.373 22.3351 245.373 19.9617V19.0293C244.857 20.216 243.91 20.8941 242.276 20.8941C240.126 20.8941 238.406 19.114 238.406 16.232C238.406 13.0957 240.212 11.4004 242.448 11.4004C244.341 11.4004 245.201 12.3328 245.459 13.0109C245.459 12.5023 245.459 11.8242 245.545 11.5699H246.405C246.405 11.909 246.405 13.35 246.405 14.2824L246.319 20.216ZM239.438 16.232C239.438 18.4359 240.642 20.0465 242.448 20.0465C244.771 20.0465 245.459 18.5207 245.459 16.1473C245.459 13.6891 244.685 12.3328 242.448 12.3328C240.298 12.248 239.438 14.1129 239.438 16.232Z" fill="black"/>
	<path d="M249.157 11.6553C251.049 16.9107 251.909 19.1146 252.167 20.1318C252.511 19.0299 253.285 16.826 255.091 11.6553H256.037L252.511 21.4033C251.479 24.1158 250.877 24.7939 249.157 24.7939C248.813 24.7939 248.641 24.7939 248.297 24.7091V23.7767C248.555 23.7767 248.813 23.8615 249.157 23.8615C250.533 23.8615 250.963 23.1834 251.651 21.3185L248.039 11.6553H249.157Z" fill="black"/>
</svg>