<svg width="36" height="41" viewBox="0 0 36 41" fill="none" xmlns="http://www.w3.org/2000/svg">
<g id="ph:play-fill">
<path id="Vector" d="M33.6849 20.2543C33.6859 20.6838 33.5894 21.1063 33.405 21.4806C33.2206 21.8549 32.9544 22.1684 32.6325 22.3905L12.6803 36.3276C12.3439 36.5628 11.9587 36.6912 11.5643 36.6995C11.1699 36.7079 10.7807 36.5958 10.437 36.375C10.0964 36.1576 9.81279 35.8406 9.61517 35.4565C9.41754 35.0725 9.31307 34.6352 9.3125 34.1898V6.31881C9.31307 5.87335 9.41754 5.43611 9.61517 5.05203C9.81279 4.66796 10.0964 4.35093 10.437 4.13354C10.7807 3.91271 11.1699 3.80069 11.5643 3.80903C11.9587 3.81737 12.3439 3.94577 12.6803 4.18097L32.6325 18.118C32.9544 18.3401 33.2206 18.6536 33.405 19.028C33.5894 19.4023 33.6859 19.8248 33.6849 20.2543Z" fill="white"/>
</g>
</svg>
