<svg width="14" height="14" viewBox="0 0 14 14" fill="none" xmlns="http://www.w3.org/2000/svg">
<path d="M6.69243 0.234785C6.71334 0.166593 6.75434 0.107118 6.80953 0.0649255C6.86472 0.022733 6.93126 0 6.99956 0C7.06785 0 7.13439 0.022733 7.18958 0.0649255C7.24477 0.107118 7.28577 0.166593 7.30668 0.234785L8.73777 4.85537C8.75889 4.92331 8.79998 4.9825 8.85516 5.02444C8.91033 5.06638 8.97675 5.08892 9.04489 5.08883H13.6775C13.7457 5.08886 13.8121 5.11154 13.8672 5.1536C13.9223 5.19566 13.9633 5.25495 13.9843 5.32297C14.0053 5.39098 14.0052 5.46422 13.9841 5.53218C13.9629 5.60014 13.9218 5.65933 13.8666 5.70126L10.1192 8.55698C10.064 8.59894 10.0229 8.65815 10.0018 8.7261C9.98075 8.79406 9.98072 8.86728 10.0017 8.93526L11.4335 13.5558C11.4548 13.6239 11.455 13.6973 11.4341 13.7655C11.4131 13.8337 11.372 13.8931 11.3168 13.9353C11.2615 13.9774 11.195 14.0001 11.1266 14C11.0583 13.9999 10.9918 13.9771 10.9367 13.9348L7.18925 11.0791C7.13412 11.037 7.06771 11.0144 6.99956 11.0144C6.9314 11.0144 6.86499 11.037 6.80986 11.0791L3.06245 13.9348C3.0073 13.9771 2.94078 13.9999 2.87246 14C2.80415 14.0001 2.73757 13.9774 2.68232 13.9353C2.62707 13.8931 2.586 13.8337 2.56503 13.7655C2.54406 13.6973 2.54428 13.6239 2.56564 13.5558L3.99737 8.93526C4.01855 8.86718 4.01859 8.79382 3.99749 8.72572C3.97638 8.65763 3.93523 8.59831 3.87994 8.5563L0.132533 5.70126C0.0775504 5.65921 0.0366532 5.6 0.01569 5.5321C-0.00527321 5.4642 -0.00522886 5.39109 0.0158167 5.32322C0.0368623 5.25535 0.0778313 5.1962 0.132865 5.15422C0.187899 5.11224 0.254179 5.08959 0.322226 5.08951H4.95487C5.0229 5.08946 5.08917 5.06685 5.14422 5.02492C5.19926 4.98299 5.24026 4.92388 5.26135 4.85604L6.69243 0.234785Z" fill="#FEC600"/>
</svg>
