<svg xmlns="http://www.w3.org/2000/svg" width="12" height="21" viewBox="0 0 12 21" fill="none">
	<path d="M11.8354 7.47113C11.8093 7.41502 11.7677 7.36752 11.7156 7.33424C11.6634 7.30095 11.6028 7.28326 11.5409 7.28324H7.68847L11.4905 1.28029C11.5216 1.23113 11.539 1.17452 11.5407 1.11636C11.5425 1.05821 11.5287 1.00064 11.5006 0.949679C11.4725 0.898678 11.4313 0.856143 11.3812 0.826516C11.3311 0.796889 11.274 0.781256 11.2158 0.78125H6.0142C5.9538 0.781258 5.89458 0.79808 5.8432 0.829832C5.79181 0.861584 5.75028 0.907013 5.72325 0.961032L0.84677 10.714C0.822014 10.7635 0.810331 10.8185 0.812831 10.8738C0.815332 10.9291 0.831933 10.9829 0.861057 11.03C0.890208 11.0771 0.930922 11.1161 0.979339 11.1431C1.02776 11.1701 1.08227 11.1843 1.13772 11.1844H4.4807L0.837969 19.8359C0.807934 19.9076 0.804533 19.9877 0.828379 20.0617C0.852224 20.1357 0.901746 20.1987 0.967996 20.2394C1.03434 20.2799 1.11298 20.2953 1.18971 20.2829C1.26645 20.2705 1.33622 20.2311 1.38642 20.1717L11.7896 7.81797C11.8295 7.77053 11.855 7.71268 11.8631 7.65124C11.8712 7.58979 11.8616 7.52731 11.8354 7.47113Z" fill="white"/>
</svg>