<svg xmlns="http://www.w3.org/2000/svg" width="23" height="24" viewBox="0 0 23 24" fill="none">
	<path d="M11.3687 14.4309C12.0876 14.4309 12.777 14.1453 13.2854 13.6369C13.7937 13.1286 14.0793 12.4391 14.0793 11.7202M11.3687 14.4309C10.6498 14.4309 9.9603 14.1453 9.45196 13.6369C8.94362 13.1286 8.65803 12.4391 8.65803 11.7202M11.3687 14.4309C8.65803 18.045 5.04386 18.9486 5.04386 18.9486M14.0793 11.7202C14.0793 11.0013 13.7937 10.3119 13.2854 9.80352C12.777 9.29518 12.0876 9.0096 11.3687 9.0096M14.0793 11.7202C17.6935 14.4309 18.597 18.045 18.597 18.045M11.3687 9.0096C10.6498 9.0096 9.9603 9.29518 9.45196 9.80352C8.94362 10.3119 8.65803 11.0013 8.65803 11.7202M11.3687 9.0096C14.0793 4.49188 17.6935 3.58834 17.6935 3.58834M8.65803 11.7202C5.04386 9.0096 4.14032 5.39542 4.14032 5.39542M11.3687 21.6592C16.8577 21.6592 21.3076 17.2093 21.3076 11.7202C21.3076 6.2312 16.8577 1.78125 11.3687 1.78125C5.87964 1.78125 1.42969 6.2312 1.42969 11.7202C1.42969 17.2093 5.87964 21.6592 11.3687 21.6592Z" stroke="#F9F9F9" stroke-width="2.71063"/>
</svg>