<svg width="399" height="399" viewBox="0 0 399 399" fill="none"
	xmlns="http://www.w3.org/2000/svg">
	<path d="M157.762 201.977C148.565 198.529 142.03 193.787 138.155 187.75C134.305 181.645 133.347 174.875 135.279 167.441L158.578 176.176C158.612 177.743 159.114 179.097 160.085 180.238C161.056 181.379 162.699 182.384 165.016 183.252C170.466 185.295 174.829 183.085 178.107 176.622L179.04 174.757C176.604 175.243 173.977 175.307 171.159 174.949C168.34 174.592 165.5 173.877 162.639 172.804C157.666 170.939 153.489 168.402 150.109 165.192C146.728 161.982 144.471 158.261 143.338 154.029C142.299 149.755 142.724 145.097 144.614 140.056C146.556 134.878 149.565 130.995 153.644 128.406C157.748 125.749 162.542 124.361 168.026 124.241C173.578 124.147 179.487 125.275 185.755 127.625C196.11 131.507 203.024 137.518 206.499 145.659C210 153.731 209.425 163.966 204.777 176.365C201.942 183.926 198.191 190.096 193.525 194.873C188.885 199.583 183.512 202.619 177.407 203.981C171.395 205.302 164.847 204.634 157.762 201.977ZM184.85 155.84C185.591 153.864 185.454 151.949 184.441 150.092C183.427 148.236 181.592 146.81 178.935 145.814C176.415 144.869 174.12 144.669 172.051 145.214C169.982 145.759 168.551 147.088 167.759 149.199C167.121 150.902 167.266 152.588 168.194 154.257C169.122 155.926 171.051 157.31 173.98 158.408C176.297 159.277 178.472 159.587 180.507 159.34C182.611 159.119 184.058 157.952 184.85 155.84ZM208.067 178.53C212.996 165.383 219.455 156.965 227.442 153.277C235.429 149.59 244.736 149.738 255.363 153.722C266.535 157.911 273.595 164.054 276.542 172.152C279.514 180.182 278.651 190.464 273.951 202.999C269.022 216.146 262.563 224.564 254.576 228.252C246.589 231.94 237.282 231.791 226.655 227.807C215.483 223.618 208.41 217.509 205.438 209.479C202.491 201.381 203.367 191.065 208.067 178.53ZM248.571 193.6C250.461 188.558 251.64 184.688 252.108 181.989C252.602 179.221 252.435 177.178 251.609 175.858C250.851 174.564 249.553 173.572 247.714 172.882C245.942 172.218 244.312 172.112 242.821 172.563C241.399 173.04 239.931 174.471 238.415 176.855C236.993 179.197 235.337 182.888 233.447 187.93C231.583 192.903 230.404 196.773 229.91 199.54C229.484 202.333 229.651 204.377 230.409 205.671C231.167 206.965 232.465 207.957 234.305 208.647C236.144 209.337 237.775 209.443 239.197 208.966C240.619 208.489 242.053 207.046 243.501 204.636C245.016 202.251 246.706 198.573 248.571 193.6Z" fill="white"/>
	<path d="M157.762 201.977C148.565 198.529 142.03 193.787 138.155 187.75C134.305 181.645 133.347 174.875 135.279 167.441L158.578 176.176C158.612 177.743 159.114 179.097 160.085 180.238C161.056 181.379 162.699 182.384 165.016 183.252C170.466 185.295 174.829 183.085 178.107 176.622L179.04 174.757C176.604 175.243 173.977 175.307 171.159 174.949C168.34 174.592 165.5 173.877 162.639 172.804C157.666 170.939 153.489 168.402 150.109 165.192C146.728 161.982 144.471 158.261 143.338 154.029C142.299 149.755 142.724 145.097 144.614 140.056C146.556 134.878 149.565 130.995 153.644 128.406C157.748 125.749 162.542 124.361 168.026 124.241C173.578 124.147 179.487 125.275 185.755 127.625C196.11 131.507 203.024 137.518 206.499 145.659C210 153.731 209.425 163.966 204.777 176.365C201.942 183.926 198.191 190.096 193.525 194.873C188.885 199.583 183.512 202.619 177.407 203.981C171.395 205.302 164.847 204.634 157.762 201.977ZM184.85 155.84C185.591 153.864 185.454 151.949 184.441 150.092C183.427 148.236 181.592 146.81 178.935 145.814C176.415 144.869 174.12 144.669 172.051 145.214C169.982 145.759 168.551 147.088 167.759 149.199C167.121 150.902 167.266 152.588 168.194 154.257C169.122 155.926 171.051 157.31 173.98 158.408C176.297 159.277 178.472 159.587 180.507 159.34C182.611 159.119 184.058 157.952 184.85 155.84ZM208.067 178.53C212.996 165.383 219.455 156.965 227.442 153.277C235.429 149.59 244.736 149.738 255.363 153.722C266.535 157.911 273.595 164.054 276.542 172.152C279.514 180.182 278.651 190.464 273.951 202.999C269.022 216.146 262.563 224.564 254.576 228.252C246.589 231.94 237.282 231.791 226.655 227.807C215.483 223.618 208.41 217.509 205.438 209.479C202.491 201.381 203.367 191.065 208.067 178.53ZM248.571 193.6C250.461 188.558 251.64 184.688 252.108 181.989C252.602 179.221 252.435 177.178 251.609 175.858C250.851 174.564 249.553 173.572 247.714 172.882C245.942 172.218 244.312 172.112 242.821 172.563C241.399 173.04 239.931 174.471 238.415 176.855C236.993 179.197 235.337 182.888 233.447 187.93C231.583 192.903 230.404 196.773 229.91 199.54C229.484 202.333 229.651 204.377 230.409 205.671C231.167 206.965 232.465 207.957 234.305 208.647C236.144 209.337 237.775 209.443 239.197 208.966C240.619 208.489 242.053 207.046 243.501 204.636C245.016 202.251 246.706 198.573 248.571 193.6Z" fill="white"/>
	<path d="M157.762 201.977C148.565 198.529 142.03 193.787 138.155 187.75C134.305 181.645 133.347 174.875 135.279 167.441L158.578 176.176C158.612 177.743 159.114 179.097 160.085 180.238C161.056 181.379 162.699 182.384 165.016 183.252C170.466 185.295 174.829 183.085 178.107 176.622L179.04 174.757C176.604 175.243 173.977 175.307 171.159 174.949C168.34 174.592 165.5 173.877 162.639 172.804C157.666 170.939 153.489 168.402 150.109 165.192C146.728 161.982 144.471 158.261 143.338 154.029C142.299 149.755 142.724 145.097 144.614 140.056C146.556 134.878 149.565 130.995 153.644 128.406C157.748 125.749 162.542 124.361 168.026 124.241C173.578 124.147 179.487 125.275 185.755 127.625C196.11 131.507 203.024 137.518 206.499 145.659C210 153.731 209.425 163.966 204.777 176.365C201.942 183.926 198.191 190.096 193.525 194.873C188.885 199.583 183.512 202.619 177.407 203.981C171.395 205.302 164.847 204.634 157.762 201.977ZM184.85 155.84C185.591 153.864 185.454 151.949 184.441 150.092C183.427 148.236 181.592 146.81 178.935 145.814C176.415 144.869 174.12 144.669 172.051 145.214C169.982 145.759 168.551 147.088 167.759 149.199C167.121 150.902 167.266 152.588 168.194 154.257C169.122 155.926 171.051 157.31 173.98 158.408C176.297 159.277 178.472 159.587 180.507 159.34C182.611 159.119 184.058 157.952 184.85 155.84ZM208.067 178.53C212.996 165.383 219.455 156.965 227.442 153.277C235.429 149.59 244.736 149.738 255.363 153.722C266.535 157.911 273.595 164.054 276.542 172.152C279.514 180.182 278.651 190.464 273.951 202.999C269.022 216.146 262.563 224.564 254.576 228.252C246.589 231.94 237.282 231.791 226.655 227.807C215.483 223.618 208.41 217.509 205.438 209.479C202.491 201.381 203.367 191.065 208.067 178.53ZM248.571 193.6C250.461 188.558 251.64 184.688 252.108 181.989C252.602 179.221 252.435 177.178 251.609 175.858C250.851 174.564 249.553 173.572 247.714 172.882C245.942 172.218 244.312 172.112 242.821 172.563C241.399 173.04 239.931 174.471 238.415 176.855C236.993 179.197 235.337 182.888 233.447 187.93C231.583 192.903 230.404 196.773 229.91 199.54C229.484 202.333 229.651 204.377 230.409 205.671C231.167 206.965 232.465 207.957 234.305 208.647C236.144 209.337 237.775 209.443 239.197 208.966C240.619 208.489 242.053 207.046 243.501 204.636C245.016 202.251 246.706 198.573 248.571 193.6Z" fill="white"/>
	<path d="M157.762 201.977C148.565 198.529 142.03 193.787 138.155 187.75C134.305 181.645 133.347 174.875 135.279 167.441L158.578 176.176C158.612 177.743 159.114 179.097 160.085 180.238C161.056 181.379 162.699 182.384 165.016 183.252C170.466 185.295 174.829 183.085 178.107 176.622L179.04 174.757C176.604 175.243 173.977 175.307 171.159 174.949C168.34 174.592 165.5 173.877 162.639 172.804C157.666 170.939 153.489 168.402 150.109 165.192C146.728 161.982 144.471 158.261 143.338 154.029C142.299 149.755 142.724 145.097 144.614 140.056C146.556 134.878 149.565 130.995 153.644 128.406C157.748 125.749 162.542 124.361 168.026 124.241C173.578 124.147 179.487 125.275 185.755 127.625C196.11 131.507 203.024 137.518 206.499 145.659C210 153.731 209.425 163.966 204.777 176.365C201.942 183.926 198.191 190.096 193.525 194.873C188.885 199.583 183.512 202.619 177.407 203.981C171.395 205.302 164.847 204.634 157.762 201.977ZM184.85 155.84C185.591 153.864 185.454 151.949 184.441 150.092C183.427 148.236 181.592 146.81 178.935 145.814C176.415 144.869 174.12 144.669 172.051 145.214C169.982 145.759 168.551 147.088 167.759 149.199C167.121 150.902 167.266 152.588 168.194 154.257C169.122 155.926 171.051 157.31 173.98 158.408C176.297 159.277 178.472 159.587 180.507 159.34C182.611 159.119 184.058 157.952 184.85 155.84ZM208.067 178.53C212.996 165.383 219.455 156.965 227.442 153.277C235.429 149.59 244.736 149.738 255.363 153.722C266.535 157.911 273.595 164.054 276.542 172.152C279.514 180.182 278.651 190.464 273.951 202.999C269.022 216.146 262.563 224.564 254.576 228.252C246.589 231.94 237.282 231.791 226.655 227.807C215.483 223.618 208.41 217.509 205.438 209.479C202.491 201.381 203.367 191.065 208.067 178.53ZM248.571 193.6C250.461 188.558 251.64 184.688 252.108 181.989C252.602 179.221 252.435 177.178 251.609 175.858C250.851 174.564 249.553 173.572 247.714 172.882C245.942 172.218 244.312 172.112 242.821 172.563C241.399 173.04 239.931 174.471 238.415 176.855C236.993 179.197 235.337 182.888 233.447 187.93C231.583 192.903 230.404 196.773 229.91 199.54C229.484 202.333 229.651 204.377 230.409 205.671C231.167 206.965 232.465 207.957 234.305 208.647C236.144 209.337 237.775 209.443 239.197 208.966C240.619 208.489 242.053 207.046 243.501 204.636C245.016 202.251 246.706 198.573 248.571 193.6Z" fill="white"/>
	<path d="M144.237 235.802L148.658 237.46L143.118 252.236L133.616 248.674L136.132 241.964L116.856 234.738L114.341 241.447L104.839 237.885L110.379 223.108L113.753 224.373C114.761 223.808 115.629 223.145 116.356 222.385C117.119 221.61 117.822 220.679 118.465 219.593C119.143 218.491 119.817 217.166 120.486 215.618L124.679 206.087L151.594 216.178L144.237 235.802ZM130.57 217.275L128.854 221.144C128.111 222.811 127.364 224.212 126.614 225.347C125.9 226.465 125.078 227.439 124.147 228.27L134.231 232.051L138.637 220.299L130.57 217.275ZM158.447 218.747L168.453 222.499L164.964 231.807L175.241 235.66L178.731 226.352L188.737 230.103L178.355 257.795L168.349 254.043L172.144 243.921L161.866 240.067L158.071 250.19L148.065 246.438L158.447 218.747ZM193.454 231.872L218.508 241.265L215.847 248.362L200.566 242.633L199.403 245.736L213.908 251.174L211.262 258.233L196.757 252.795L195.506 256.13L211.756 262.223L208.281 269.015L183.072 259.563L193.454 231.872ZM222.741 242.852L232.166 246.386L226.451 261.627L244.615 251.053L253.341 254.325L242.959 282.016L233.535 278.483L239.25 263.241L221.086 273.815L212.359 270.544L222.741 242.852ZM231.433 236.07L238.298 238.643C238.104 239.396 238.199 240.007 238.584 240.476C238.978 240.918 239.667 241.324 240.649 241.692C241.683 242.08 242.482 242.232 243.044 242.148C243.616 242.038 244.076 241.636 244.425 240.941L251.29 243.514C250.347 245.874 248.899 247.336 246.947 247.902C245.021 248.477 242.286 248.101 238.744 246.773C235.228 245.455 232.92 243.941 231.821 242.231C230.722 240.521 230.593 238.468 231.433 236.07Z" fill="white"/>
	<path d="M144.237 235.802L148.658 237.46L143.118 252.236L133.616 248.674L136.132 241.964L116.856 234.738L114.341 241.447L104.839 237.885L110.379 223.108L113.753 224.373C114.761 223.808 115.629 223.145 116.356 222.385C117.119 221.61 117.822 220.679 118.465 219.593C119.143 218.491 119.817 217.166 120.486 215.618L124.679 206.087L151.594 216.178L144.237 235.802ZM130.57 217.275L128.854 221.144C128.111 222.811 127.364 224.212 126.614 225.347C125.9 226.465 125.078 227.439 124.147 228.27L134.231 232.051L138.637 220.299L130.57 217.275ZM158.447 218.747L168.453 222.499L164.964 231.807L175.241 235.66L178.731 226.352L188.737 230.103L178.355 257.795L168.349 254.043L172.144 243.921L161.866 240.067L158.071 250.19L148.065 246.438L158.447 218.747ZM193.454 231.872L218.508 241.265L215.847 248.362L200.566 242.633L199.403 245.736L213.908 251.174L211.262 258.233L196.757 252.795L195.506 256.13L211.756 262.223L208.281 269.015L183.072 259.563L193.454 231.872ZM222.741 242.852L232.166 246.386L226.451 261.627L244.615 251.053L253.341 254.325L242.959 282.016L233.535 278.483L239.25 263.241L221.086 273.815L212.359 270.544L222.741 242.852ZM231.433 236.07L238.298 238.643C238.104 239.396 238.199 240.007 238.584 240.476C238.978 240.918 239.667 241.324 240.649 241.692C241.683 242.08 242.482 242.232 243.044 242.148C243.616 242.038 244.076 241.636 244.425 240.941L251.29 243.514C250.347 245.874 248.899 247.336 246.947 247.902C245.021 248.477 242.286 248.101 238.744 246.773C235.228 245.455 232.92 243.941 231.821 242.231C230.722 240.521 230.593 238.468 231.433 236.07Z" fill="white"/>
	<path d="M144.237 235.802L148.658 237.46L143.118 252.236L133.616 248.674L136.132 241.964L116.856 234.738L114.341 241.447L104.839 237.885L110.379 223.108L113.753 224.373C114.761 223.808 115.629 223.145 116.356 222.385C117.119 221.61 117.822 220.679 118.465 219.593C119.143 218.491 119.817 217.166 120.486 215.618L124.679 206.087L151.594 216.178L144.237 235.802ZM130.57 217.275L128.854 221.144C128.111 222.811 127.364 224.212 126.614 225.347C125.9 226.465 125.078 227.439 124.147 228.27L134.231 232.051L138.637 220.299L130.57 217.275ZM158.447 218.747L168.453 222.499L164.964 231.807L175.241 235.66L178.731 226.352L188.737 230.103L178.355 257.795L168.349 254.043L172.144 243.921L161.866 240.067L158.071 250.19L148.065 246.438L158.447 218.747ZM193.454 231.872L218.508 241.265L215.847 248.362L200.566 242.633L199.403 245.736L213.908 251.174L211.262 258.233L196.757 252.795L195.506 256.13L211.756 262.223L208.281 269.015L183.072 259.563L193.454 231.872ZM222.741 242.852L232.166 246.386L226.451 261.627L244.615 251.053L253.341 254.325L242.959 282.016L233.535 278.483L239.25 263.241L221.086 273.815L212.359 270.544L222.741 242.852ZM231.433 236.07L238.298 238.643C238.104 239.396 238.199 240.007 238.584 240.476C238.978 240.918 239.667 241.324 240.649 241.692C241.683 242.08 242.482 242.232 243.044 242.148C243.616 242.038 244.076 241.636 244.425 240.941L251.29 243.514C250.347 245.874 248.899 247.336 246.947 247.902C245.021 248.477 242.286 248.101 238.744 246.773C235.228 245.455 232.92 243.941 231.821 242.231C230.722 240.521 230.593 238.468 231.433 236.07Z" fill="white"/>
	<path d="M144.237 235.802L148.658 237.46L143.118 252.236L133.616 248.674L136.132 241.964L116.856 234.738L114.341 241.447L104.839 237.885L110.379 223.108L113.753 224.373C114.761 223.808 115.629 223.145 116.356 222.385C117.119 221.61 117.822 220.679 118.465 219.593C119.143 218.491 119.817 217.166 120.486 215.618L124.679 206.087L151.594 216.178L144.237 235.802ZM130.57 217.275L128.854 221.144C128.111 222.811 127.364 224.212 126.614 225.347C125.9 226.465 125.078 227.439 124.147 228.27L134.231 232.051L138.637 220.299L130.57 217.275ZM158.447 218.747L168.453 222.499L164.964 231.807L175.241 235.66L178.731 226.352L188.737 230.103L178.355 257.795L168.349 254.043L172.144 243.921L161.866 240.067L158.071 250.19L148.065 246.438L158.447 218.747ZM193.454 231.872L218.508 241.265L215.847 248.362L200.566 242.633L199.403 245.736L213.908 251.174L211.262 258.233L196.757 252.795L195.506 256.13L211.756 262.223L208.281 269.015L183.072 259.563L193.454 231.872ZM222.741 242.852L232.166 246.386L226.451 261.627L244.615 251.053L253.341 254.325L242.959 282.016L233.535 278.483L239.25 263.241L221.086 273.815L212.359 270.544L222.741 242.852ZM231.433 236.07L238.298 238.643C238.104 239.396 238.199 240.007 238.584 240.476C238.978 240.918 239.667 241.324 240.649 241.692C241.683 242.08 242.482 242.232 243.044 242.148C243.616 242.038 244.076 241.636 244.425 240.941L251.29 243.514C250.347 245.874 248.899 247.336 246.947 247.902C245.021 248.477 242.286 248.101 238.744 246.773C235.228 245.455 232.92 243.941 231.821 242.231C230.722 240.521 230.593 238.468 231.433 236.07Z" fill="white"/>
	<path d="M245.847 85.6736L255.484 67.4873L266.824 73.4962L265.572 75.8583L256.976 71.3034L254.341 76.2762L258.408 78.4314C259.758 79.1466 260.787 79.9726 261.496 80.9095C262.211 81.8495 262.606 82.8509 262.68 83.9136C262.759 84.9794 262.512 86.054 261.938 87.1374C261.364 88.2208 260.606 89.0435 259.663 89.6057C258.727 90.171 257.661 90.4365 256.466 90.4023C255.277 90.3712 254.008 89.998 252.658 89.2828L245.847 85.6736ZM249.814 84.8188L253.881 86.9739C254.663 87.388 255.404 87.5839 256.106 87.5615C256.814 87.5423 257.437 87.3607 257.976 87.0168C258.52 86.676 258.942 86.2244 259.24 85.662C259.673 84.845 259.731 83.9772 259.414 83.0586C259.1 82.1341 258.357 81.3613 257.185 80.7402L253.118 78.585L249.814 84.8188Z" fill="white"/>
	<path d="M281.971 95.3386L285.207 98.4398C286.571 99.7471 287.296 101.092 287.382 102.473C287.468 103.855 286.999 105.081 285.975 106.15C285.307 106.846 284.543 107.315 283.681 107.556C282.819 107.797 281.915 107.776 280.971 107.493C280.031 107.205 279.107 106.625 278.198 105.754L273.329 101.088L284.01 89.943L286.136 91.9804L277.249 101.253L279.992 103.882C280.616 104.48 281.284 104.809 281.996 104.87C282.712 104.925 283.314 104.699 283.801 104.192C284.315 103.655 284.534 103.024 284.457 102.301C284.385 101.573 284.037 100.91 283.413 100.312L280.177 97.2105L281.971 95.3386ZM284.031 111.344L294.712 100.199L296.881 102.279L286.201 113.423L284.031 111.344Z" fill="white"/>
	<path d="M301.093 132.418C300.318 131.141 299.94 129.865 299.959 128.592C299.987 127.321 300.364 126.128 301.091 125.014C301.817 123.899 302.842 122.94 304.165 122.137C305.505 121.324 306.841 120.859 308.172 120.741C309.509 120.619 310.745 120.841 311.879 121.407C313.014 121.972 313.958 122.876 314.713 124.119C315.321 125.122 315.677 126.128 315.78 127.139C315.89 128.146 315.758 129.092 315.386 129.976C315.017 130.866 314.416 131.626 313.584 132.256L312.067 129.756C312.602 129.243 312.944 128.605 313.092 127.841C313.243 127.084 313.07 126.295 312.573 125.476C312.139 124.76 311.569 124.247 310.865 123.938C310.169 123.631 309.385 123.539 308.511 123.662C307.643 123.781 306.739 124.126 305.8 124.696C304.837 125.28 304.095 125.93 303.574 126.646C303.052 127.362 302.761 128.103 302.7 128.868C302.643 129.639 302.835 130.389 303.277 131.116C303.572 131.603 303.929 131.99 304.346 132.278C304.773 132.568 305.236 132.745 305.738 132.809C306.243 132.879 306.766 132.824 307.307 132.644L308.824 135.144C307.915 135.571 306.985 135.755 306.033 135.698C305.081 135.64 304.177 135.338 303.321 134.792C302.468 134.252 301.725 133.46 301.093 132.418Z" fill="white"/>
	<path d="M323.382 145.707L325.829 144.851L330.13 157.145L327.682 158.001L326.02 153.248L313.897 157.489L312.928 154.719L325.051 150.478L323.382 145.707Z" fill="white"/>
	<path d="M313.271 174.079L334.347 171.567L334.694 174.481L332.209 174.777L332.239 175.026C332.579 175.161 332.978 175.367 333.436 175.643C333.894 175.919 334.314 176.328 334.695 176.869C335.084 177.41 335.335 178.156 335.448 179.107C335.595 180.345 335.414 181.486 334.905 182.532C334.395 183.578 333.585 184.447 332.473 185.14C331.362 185.839 329.978 186.287 328.322 186.485C326.665 186.682 325.212 186.575 323.962 186.164C322.719 185.753 321.72 185.102 320.967 184.214C320.219 183.325 319.772 182.261 319.625 181.024C319.514 180.092 319.579 179.312 319.821 178.683C320.064 178.06 320.375 177.557 320.755 177.175C321.134 176.792 321.476 176.492 321.781 176.273L321.759 176.093L313.627 177.063L313.271 174.079ZM327.031 175.404C325.954 175.533 325.027 175.802 324.253 176.211C323.479 176.621 322.897 177.149 322.509 177.796C322.127 178.442 321.987 179.194 322.09 180.052C322.196 180.943 322.521 181.66 323.065 182.203C323.615 182.744 324.318 183.119 325.172 183.328C326.028 183.543 326.968 183.589 327.992 183.467C329.004 183.347 329.894 183.086 330.662 182.684C331.431 182.288 332.013 181.76 332.406 181.099C332.801 180.445 332.944 179.669 332.837 178.771C332.734 177.906 332.424 177.201 331.907 176.655C331.39 176.116 330.715 175.741 329.88 175.53C329.045 175.319 328.096 175.277 327.031 175.404Z" fill="white"/>
	<path d="M331.636 207.357L330.954 211.787C330.667 213.654 329.982 215.02 328.9 215.884C327.818 216.748 326.546 217.067 325.082 216.842C324.129 216.695 323.306 216.338 322.614 215.771C321.921 215.203 321.42 214.452 321.11 213.516C320.806 212.581 320.75 211.491 320.942 210.247L321.967 203.582L337.224 205.929L336.776 208.839L324.082 206.886L323.505 210.641C323.373 211.495 323.487 212.231 323.846 212.849C324.212 213.468 324.742 213.831 325.438 213.938C326.173 214.051 326.814 213.868 327.362 213.39C327.917 212.913 328.26 212.247 328.391 211.393L329.073 206.963L331.636 207.357ZM319.713 218.233L334.97 220.58L334.513 223.55L319.256 221.202L319.713 218.233Z" fill="white"/>
	<path d="M317.806 243.004L325.317 253.769L324.007 256.728L309.892 250.48L311.084 247.787L321.358 252.335L313.825 241.593L315.147 238.607L329.263 244.855L328.071 247.547L317.806 243.004ZM330.616 254.708L329.616 256.968C328.58 256.51 327.901 255.77 327.577 254.747C327.256 253.733 327.371 252.604 327.922 251.361C328.469 250.123 329.226 249.282 330.192 248.838C331.164 248.396 332.168 248.405 333.203 248.863L332.207 251.114C331.747 250.911 331.28 250.865 330.806 250.978C330.337 251.093 329.958 251.478 329.668 252.134C329.383 252.777 329.354 253.314 329.581 253.744C329.806 254.18 330.151 254.502 330.616 254.708Z" fill="white"/>
	<path d="M298.397 277.635L296.309 279.893C295.819 279.495 295.269 279.374 294.659 279.53C294.044 279.692 293.448 280.085 292.87 280.71C292.283 281.344 291.918 282.01 291.775 282.708C291.636 283.41 291.855 284.028 292.43 284.56C292.775 284.878 293.154 285.07 293.569 285.134C293.985 285.208 294.407 285.156 294.836 284.978C295.261 284.805 295.666 284.51 296.053 284.091L297.759 282.247L299.493 283.851L297.787 285.695C297.209 286.32 296.92 286.919 296.918 287.493C296.917 288.066 297.13 288.551 297.558 288.947C298.021 289.374 298.547 289.551 299.136 289.476C299.726 289.41 300.294 289.082 300.84 288.492C301.395 287.892 301.722 287.267 301.82 286.619C301.923 285.975 301.772 285.447 301.367 285.036L303.428 282.808C304.048 283.41 304.427 284.116 304.563 284.926C304.699 285.745 304.609 286.593 304.292 287.468C303.976 288.353 303.445 289.198 302.699 290.005C301.921 290.846 301.112 291.449 300.273 291.814C299.434 292.178 298.621 292.307 297.834 292.2C297.043 292.098 296.338 291.761 295.718 291.188C295.094 290.61 294.755 289.95 294.702 289.208C294.65 288.475 294.813 287.731 295.191 286.977L295.073 286.868C294.639 287.278 294.147 287.544 293.597 287.665C293.047 287.786 292.489 287.763 291.923 287.595C291.357 287.427 290.828 287.116 290.336 286.661C289.643 286.02 289.22 285.273 289.068 284.421C288.912 283.574 289.008 282.686 289.355 281.757C289.704 280.838 290.276 279.948 291.072 279.087C291.845 278.251 292.669 277.621 293.544 277.199C294.419 276.785 295.278 276.607 296.119 276.664C296.956 276.726 297.715 277.05 298.397 277.635Z" fill="white"/>
	<path d="M274.007 295.307C274.807 294.744 275.634 294.383 276.489 294.224C277.347 294.07 278.166 294.145 278.945 294.449C279.719 294.757 280.397 295.324 280.979 296.152C281.48 296.864 281.756 297.547 281.806 298.2C281.856 298.853 281.742 299.477 281.466 300.074C281.189 300.67 280.811 301.239 280.332 301.781C279.853 302.322 279.34 302.839 278.793 303.331C278.099 303.95 277.535 304.453 277.102 304.84C276.674 305.232 276.399 305.569 276.277 305.85C276.156 306.132 276.2 306.421 276.408 306.717L276.449 306.775C276.954 307.492 277.548 307.906 278.231 308.015C278.908 308.128 279.644 307.905 280.439 307.346C281.266 306.764 281.789 306.121 282.007 305.419C282.224 304.726 282.267 304.093 282.135 303.522L284.815 302.423C285.081 303.383 285.116 304.284 284.922 305.125C284.726 305.976 284.358 306.751 283.818 307.45C283.282 308.155 282.633 308.776 281.871 309.312C281.367 309.666 280.791 309.982 280.142 310.259C279.491 310.545 278.809 310.705 278.096 310.74C277.378 310.778 276.655 310.619 275.929 310.262C275.206 309.91 274.521 309.274 273.873 308.354L267.974 299.971L270.374 298.282L271.588 300.008L271.687 299.938C271.622 299.509 271.641 299.029 271.742 298.498C271.844 297.968 272.073 297.426 272.429 296.872C272.785 296.318 273.311 295.797 274.007 295.307ZM274.861 297.655C274.181 298.134 273.695 298.677 273.402 299.284C273.103 299.896 272.98 300.507 273.033 301.117C273.083 301.737 273.284 302.296 273.635 302.794L274.78 304.422C274.806 304.272 274.918 304.071 275.116 303.816C275.313 303.572 275.551 303.31 275.83 303.032C276.113 302.759 276.39 302.494 276.66 302.238C276.935 301.988 277.164 301.778 277.347 301.608C277.781 301.212 278.146 300.804 278.44 300.384C278.729 299.968 278.896 299.543 278.943 299.108C278.988 298.683 278.856 298.252 278.548 297.813C278.12 297.205 277.571 296.903 276.902 296.907C276.237 296.916 275.557 297.166 274.861 297.655Z" fill="white"/>
	<path d="M255.031 308.174L260.869 322.464L249.212 327.227L243.374 312.937L246.1 311.823L250.958 323.713L257.182 321.17L252.324 309.281L255.031 308.174Z" fill="white"/>
	<path d="M226.085 312.56C226.528 312.486 226.937 312.455 227.312 312.467C227.687 312.472 227.97 312.499 228.162 312.549L227.855 315.097C227.289 315.042 226.796 315.06 226.376 315.151C225.957 315.241 225.61 315.463 225.336 315.814C225.055 316.167 224.846 316.701 224.708 317.417L224.511 318.49L232.665 332.979L229.493 333.51L223.658 322.342L223.5 322.368L221.624 334.829L218.442 335.362L221.825 317.055C221.982 316.213 222.24 315.48 222.598 314.857C222.954 314.226 223.419 313.72 223.994 313.339C224.569 312.957 225.266 312.698 226.085 312.56Z" fill="white"/>
	<path d="M196.164 320.986C197.655 321.071 198.92 321.483 199.958 322.22C200.99 322.963 201.758 323.95 202.265 325.181C202.772 326.411 202.981 327.799 202.892 329.344C202.803 330.909 202.429 332.273 201.772 333.437C201.115 334.607 200.231 335.499 199.122 336.114C198.013 336.728 196.733 336.994 195.282 336.91C194.111 336.843 193.08 336.566 192.189 336.079C191.297 335.598 190.592 334.954 190.075 334.146C189.551 333.337 189.265 332.412 189.217 331.369L192.137 331.536C192.256 332.268 192.588 332.911 193.134 333.466C193.672 334.02 194.42 334.324 195.376 334.379C196.213 334.427 196.958 334.248 197.612 333.843C198.259 333.444 198.779 332.849 199.173 332.06C199.567 331.277 199.795 330.337 199.858 329.24C199.923 328.117 199.808 327.137 199.513 326.301C199.219 325.466 198.774 324.806 198.177 324.322C197.574 323.838 196.848 323.572 195.998 323.523C195.43 323.491 194.909 323.565 194.435 323.746C193.955 323.933 193.546 324.215 193.209 324.591C192.865 324.968 192.614 325.43 192.455 325.978L189.536 325.81C189.7 324.82 190.075 323.949 190.662 323.197C191.248 322.446 192.009 321.872 192.945 321.476C193.873 321.079 194.946 320.916 196.164 320.986Z" fill="white"/>
	<path d="M174.953 319.252L170.689 334.088L167.801 333.258L169.589 327.038L168.198 326.638L161.513 331.451L157.939 330.424L165.76 324.86L162.136 315.568L165.719 316.598L168.487 323.814L170.36 324.353L172.065 318.422L174.953 319.252Z" fill="white"/>
	<path d="M127.384 302.758L116.297 309.022L114.24 307.444L128.762 299.128L130.532 300.486L126.161 316.588L124.128 315.028L127.384 302.758ZM124.79 315.536L134.184 303.287L136.521 305.079L127.126 317.328L124.79 315.536ZM125.046 296.278L115.651 308.526L113.331 306.747L122.726 294.498L125.046 296.278Z" fill="white"/>
	<path d="M105.689 277.522C106.28 278.301 106.672 279.115 106.862 279.963C107.047 280.815 107.002 281.636 106.727 282.426C106.448 283.21 105.905 283.909 105.1 284.521C104.406 285.048 103.734 285.348 103.083 285.422C102.433 285.496 101.804 285.405 101.198 285.15C100.592 284.896 100.01 284.539 99.451 284.08C98.892 283.621 98.3568 283.128 97.8456 282.599C97.2009 281.928 96.6775 281.383 96.2755 280.965C95.8682 280.551 95.5215 280.288 95.2354 280.177C94.9493 280.067 94.6622 280.121 94.3742 280.34L94.3182 280.382C93.6194 280.913 93.2279 281.522 93.1438 282.209C93.0557 282.89 93.3055 283.617 93.8933 284.391C94.5054 285.196 95.1665 285.695 95.8766 285.888C96.5773 286.079 97.2105 286.098 97.7764 285.946L98.973 288.584C98.0235 288.884 97.1248 288.953 96.2769 288.79C95.4196 288.625 94.6315 288.285 93.9127 287.771C93.1886 287.261 92.5448 286.636 91.9813 285.894C91.6083 285.404 91.2718 284.839 90.9716 284.2C90.662 283.56 90.4768 282.885 90.4161 282.174C90.3512 281.457 90.484 280.729 90.8143 279.99C91.1393 279.255 91.7498 278.547 92.646 277.866L100.807 271.664L102.583 274L100.903 275.277L100.976 275.373C101.403 275.293 101.883 275.294 102.417 275.376C102.951 275.459 103.501 275.668 104.067 276.003C104.633 276.338 105.174 276.845 105.689 277.522ZM103.373 278.462C102.87 277.8 102.31 277.334 101.692 277.063C101.07 276.787 100.455 276.686 99.8468 276.761C99.2295 276.835 98.6782 277.056 98.1928 277.425L96.6085 278.629C96.7587 278.649 96.9644 278.754 97.2255 278.943C97.4773 279.13 97.7474 279.358 98.0359 279.627C98.319 279.9 98.5934 280.167 98.859 280.428C99.1193 280.693 99.3378 280.914 99.5144 281.091C99.9258 281.51 100.347 281.86 100.777 282.138C101.204 282.412 101.635 282.564 102.071 282.594C102.497 282.624 102.923 282.476 103.35 282.152C103.942 281.702 104.224 281.143 104.196 280.474C104.162 279.81 103.888 279.139 103.373 278.462Z" fill="white"/>
	<path d="M87.0429 258.045L74.0174 256.422L72.6953 253.468L86.7846 247.161L87.9876 249.849L77.7325 254.439L90.7549 256.031L92.0893 259.013L78 265.319L76.797 262.631L87.0429 258.045ZM69.7731 259.731L68.763 257.474C69.7965 257.012 70.8016 257.002 71.7782 257.446C72.7461 257.886 73.5078 258.727 74.0635 259.968C74.6164 261.204 74.7346 262.329 74.4183 263.344C74.0958 264.362 73.4178 265.102 72.3844 265.565L71.3784 263.317C71.8371 263.112 72.1835 262.795 72.4178 262.368C72.6459 261.942 72.6135 261.403 72.3206 260.748C72.0332 260.106 71.6537 259.726 71.1819 259.607C70.7074 259.481 70.2378 259.523 69.7731 259.731Z" fill="white"/>
	<path d="M70.2569 223.762L72.8146 223.279L74.365 231.495L71.8072 231.978L70.2569 223.762ZM65.3403 232.339L80.509 229.477L81.055 232.37L65.8863 235.233L65.3403 232.339ZM63.557 222.888L78.7257 220.026L79.2698 222.91L64.1011 225.772L63.557 222.888Z" fill="white"/>
	<path d="M72.4667 200.862L61.5937 193.508L61.7547 190.276L77.172 191.045L77.0254 193.986L65.8038 193.426L76.6883 200.751L76.5257 204.013L61.1085 203.244L61.255 200.304L72.4667 200.862Z" fill="white"/>
	<path d="M73.091 162.685L75.5884 163.419L73.2318 171.441L70.7344 170.708L73.091 162.685ZM64.8109 168.088L79.6215 172.438L78.7916 175.264L63.981 170.913L64.8109 168.088ZM67.5216 158.86L82.3321 163.211L81.5051 166.026L66.6945 161.676L67.5216 158.86Z" fill="white"/>
	<path d="M83.312 135.394L85.6031 136.629L81.2726 144.661L78.9815 143.426L83.312 135.394Z" fill="white"/>
	<path d="M103.405 123.521C102.465 124.621 101.393 125.366 100.188 125.755C98.983 126.145 97.7335 126.179 96.4394 125.858C95.1453 125.537 93.8921 124.858 92.6796 123.823C91.462 122.783 90.5909 121.647 90.0662 120.414C89.5416 119.182 89.3773 117.94 89.5735 116.689C89.7697 115.438 90.3378 114.263 91.2777 113.162C92.2175 112.062 93.2899 111.317 94.4948 110.928C95.6997 110.538 96.9518 110.506 98.251 110.832C99.5501 111.157 100.809 111.84 102.026 112.88C103.239 113.915 104.105 115.047 104.624 116.275C105.144 117.503 105.305 118.742 105.109 119.993C104.913 121.244 104.345 122.42 103.405 123.521ZM101.494 121.875C102.103 121.161 102.419 120.409 102.442 119.619C102.466 118.828 102.26 118.053 101.825 117.294C101.394 116.529 100.801 115.825 100.047 115.181C99.2984 114.541 98.5128 114.069 97.6904 113.763C96.8672 113.447 96.0644 113.361 95.282 113.503C94.4996 113.645 93.8038 114.073 93.1946 114.786C92.5811 115.505 92.263 116.264 92.2405 117.064C92.2222 117.859 92.4311 118.641 92.867 119.41C93.3021 120.169 93.8942 120.869 94.6431 121.508C95.397 122.152 96.1831 122.63 97.0012 122.941C97.8236 123.247 98.6235 123.327 99.4008 123.18C100.182 123.028 100.88 122.593 101.494 121.875Z" fill="white"/>
	<path d="M109.965 97.3448L108.388 95.2869L118.725 87.3637L120.303 89.4215L116.307 92.4845L124.12 102.678L121.791 104.463L113.977 94.2697L109.965 97.3448Z" fill="white"/>
	<path d="M142.479 91.1674C141.109 91.8274 139.788 92.103 138.516 91.9943C137.247 91.8766 136.087 91.413 135.035 90.6033C133.987 89.7847 133.115 88.6541 132.42 87.2115C131.734 85.7869 131.395 84.4035 131.403 83.0611C131.417 81.7159 131.757 80.5073 132.423 79.4354C133.095 78.3606 134.077 77.5121 135.369 76.8899C136.153 76.512 136.976 76.2755 137.838 76.1803C138.699 76.0852 139.556 76.1743 140.409 76.4476C141.262 76.7209 142.071 77.2198 142.837 77.9443C143.599 78.6628 144.284 79.6528 144.892 80.9144L145.354 81.8741L134.299 87.1988L133.322 85.1707L141.725 81.1237C141.381 80.4115 140.933 79.8505 140.379 79.4407C139.821 79.0249 139.203 78.7836 138.524 78.7166C137.851 78.6467 137.164 78.7804 136.464 79.1176C135.703 79.4839 135.129 79.9909 134.742 80.6384C134.358 81.277 134.156 81.9692 134.136 82.715C134.119 83.4519 134.278 84.1675 134.612 84.8616L135.375 86.4461C135.823 87.3757 136.367 88.0879 137.007 88.5828C137.653 89.0748 138.355 89.3504 139.112 89.4096C139.866 89.4627 140.639 89.2988 141.429 88.9179C141.943 88.6708 142.375 88.3731 142.728 88.0247C143.078 87.6703 143.336 87.2711 143.501 86.827C143.666 86.383 143.726 85.9044 143.68 85.3913L146.464 84.6189C146.623 85.4723 146.573 86.3106 146.315 87.1338C146.06 87.9481 145.61 88.7041 144.964 89.4017C144.322 90.0904 143.494 90.679 142.479 91.1674Z" fill="white"/>
	<path d="M161.111 82.436L160.536 79.8974L161.076 79.7774C161.494 79.6843 161.825 79.5182 162.067 79.2791C162.314 79.032 162.481 78.6722 162.568 78.1999C162.655 77.7275 162.663 77.1011 162.593 76.3206C162.521 75.5336 162.379 74.5562 162.167 73.3885L160.948 66.6588L171.464 64.3198L174.816 79.3879L171.942 80.0272L169.153 67.49L164.228 68.5854L165.132 73.7585C165.349 75.0142 165.463 76.1282 165.474 77.1006C165.491 78.0714 165.385 78.9082 165.157 79.611C164.927 80.3072 164.559 80.873 164.052 81.3084C163.543 81.7372 162.877 82.0433 162.053 82.2266L161.111 82.436Z" fill="white"/>
	<path d="M199.005 76.9563L199.097 64.083L195.399 64.0567C194.521 64.0504 193.836 64.2499 193.344 64.6551C192.852 65.0603 192.604 65.5945 192.599 66.2578C192.595 66.9143 192.815 67.4452 193.261 67.8504C193.714 68.2489 194.349 68.4511 195.166 68.4569L199.94 68.4909L199.923 70.9228L195.149 70.8889C194.01 70.8808 193.027 70.6862 192.199 70.3051C191.377 69.9173 190.745 69.3735 190.301 68.6735C189.863 67.9736 189.648 67.148 189.655 66.1966C189.662 65.2252 189.896 64.3893 190.356 63.6891C190.824 62.9823 191.487 62.4376 192.348 62.0551C193.215 61.6727 194.238 61.4857 195.417 61.494L201.939 61.5405L201.829 76.9764L199.005 76.9563ZM188.875 76.8842L193.282 69.1168L196.358 69.1387L191.951 76.9061L188.875 76.8842Z" fill="white"/>
</svg>
